<svg width="16" height="16" viewBox="0 0 16 16" fill="none" xmlns="http://www.w3.org/2000/svg">
<mask id="mask0_4865_68197" style="mask-type:alpha" maskUnits="userSpaceOnUse" x="0" y="0" width="16" height="16">
<rect width="16" height="16" fill="#ABABAB"/>
</mask>
<g mask="url(#mask0_4865_68197)">
<path d="M11.7109 12.7734L3.22564 4.28814C2.93275 3.99525 2.93275 3.52038 3.22564 3.22748C3.51854 2.93459 3.99341 2.93459 4.2863 3.22748L12.7716 11.7128C13.0645 12.0057 13.0645 12.4805 12.7716 12.7734C12.4787 13.0663 12.0038 13.0663 11.7109 12.7734Z" fill="#FE8FC4"/>
<path d="M12.7734 4.28908L4.28814 12.7744C3.99525 13.0673 3.52038 13.0673 3.22748 12.7744C2.93459 12.4815 2.93459 12.0066 3.22748 11.7137L11.7128 3.22842C12.0057 2.93552 12.4805 2.93552 12.7734 3.22842C13.0663 3.52131 13.0663 3.99618 12.7734 4.28908Z" fill="#FE8FC4"/>
</g>
</svg>
