<svg width="24" height="24" viewBox="0 0 24 24" fill="none" xmlns="http://www.w3.org/2000/svg">
<path d="M23.9995 12C23.9995 5.45711 18.6954 0.152954 12.1525 0.152954C5.60958 0.152954 0.30542 5.45711 0.30542 12C0.30542 17.5558 4.13059 22.2178 9.29069 23.4983V15.6205H6.84783V12H9.29069V10.44C9.29069 6.40772 11.1156 4.53873 15.0744 4.53873C15.825 4.53873 17.1202 4.68611 17.65 4.83301V8.11464C17.3704 8.08526 16.8846 8.07057 16.2814 8.07057C14.339 8.07057 13.5883 8.80651 13.5883 10.7196V12H17.458L16.7932 15.6205H13.5883V23.7603C19.4545 23.0519 24 18.0572 24 12H23.9995Z" fill="#0866FF"/>
<path d="M16.7925 15.6205L17.4574 12H13.5877V10.7196C13.5877 8.80651 14.3383 8.07057 16.2807 8.07057C16.884 8.07057 17.3697 8.08526 17.6493 8.11464V4.83301C17.1195 4.68563 15.8244 4.53873 15.0738 4.53873C11.1149 4.53873 9.29003 6.40772 9.29003 10.44V12H6.84717V15.6205H9.29003V23.4983C10.2065 23.7257 11.1652 23.847 12.1518 23.847C12.6375 23.847 13.1166 23.8172 13.5872 23.7603V15.6205H16.7921H16.7925Z" fill="white"/>
</svg>
