<svg width="20" height="21" viewBox="0 0 20 21" fill="none" xmlns="http://www.w3.org/2000/svg">
<circle cx="10" cy="10.5" r="10" fill="#E4007F"/>
<path d="M10.25 13.8971C10.0539 13.8971 9.88235 13.8284 9.73529 13.6912C9.58824 13.5539 9.5049 13.3824 9.48529 13.1765C9.45588 12.8039 9.42647 12.3774 9.39706 11.8971C9.37745 11.4167 9.35294 10.9265 9.32353 10.4265C9.29412 9.91667 9.26961 9.43137 9.25 8.97059C9.23039 8.5098 9.21569 8.10294 9.20588 7.75C9.19608 7.39706 9.19118 7.13725 9.19118 6.97059V5.51471C9.19118 5.23039 9.28922 4.9902 9.48529 4.79412C9.69118 4.59804 9.94608 4.5 10.25 4.5C10.5637 4.5 10.8186 4.59804 11.0147 4.79412C11.2206 4.9902 11.3235 5.23039 11.3235 5.51471V6.97059C11.3235 7.13725 11.3137 7.39706 11.2941 7.75C11.2843 8.10294 11.2696 8.5098 11.25 8.97059C11.2304 9.43137 11.2059 9.91667 11.1765 10.4265C11.1569 10.9265 11.1324 11.4167 11.1029 11.8971C11.0735 12.3774 11.0441 12.8039 11.0147 13.1765C11.0049 13.3824 10.9265 13.5539 10.7794 13.6912C10.6324 13.8284 10.4559 13.8971 10.25 13.8971ZM10.25 17.4853C9.90686 17.4853 9.61275 17.3627 9.36765 17.1176C9.12255 16.8725 9 16.5784 9 16.2353C9 15.8922 9.12255 15.598 9.36765 15.3529C9.61275 15.1078 9.90686 14.9853 10.25 14.9853C10.5931 14.9853 10.8873 15.1078 11.1324 15.3529C11.3775 15.598 11.5 15.8922 11.5 16.2353C11.5 16.5784 11.3775 16.8725 11.1324 17.1176C10.8873 17.3627 10.5931 17.4853 10.25 17.4853Z" fill="white"/>
</svg>
