<svg width="10" height="11" viewBox="0 0 10 11" fill="none" xmlns="http://www.w3.org/2000/svg">
<path d="M5.00014 10.5C4.9099 10.5 4.82685 10.4253 4.72353 10.3266C3.73608 9.38684 1.77753 7.88229 0.718798 6.05079C0.00861866 4.82178 -0.218299 3.26651 0.23292 2.05054C0.682831 0.837986 1.91028 0.334871 2.8513 0.552842C3.79232 0.770813 4.49007 1.58443 4.82554 2.32266C4.86151 2.40148 4.92821 2.51869 4.99557 2.52075C5.06292 2.52281 5.13747 2.4056 5.17475 2.32334C5.51022 1.58443 6.1635 0.781094 7.14899 0.552842C8.13448 0.324589 9.31811 0.837986 9.76737 2.05054C10.2179 3.26651 9.99167 4.82178 9.28149 6.0501C8.22342 7.88092 6.26617 9.3841 5.27872 10.3245C5.17409 10.4239 5.09039 10.5 5.00014 10.5Z" fill="#FE8FC4"/>
</svg>
