<svg xmlns="http://www.w3.org/2000/svg">
  <defs>
    <symbol id="common--icon-heart" viewBox="0 0 17 16">
      <mask id="mask0_1664_985" style="mask-type:alpha" maskUnits="userSpaceOnUse" x="0" y="0" width="17" height="16">
        <rect x="0.5" width="16" height="16" fill="currentColor"/>
      </mask>
      <g mask="url(#mask0_1664_985)">
        <path d="M8.18179 13.9018C2.47159 10.7074 2 7.65714 2 6.72802C2 3.58096 4.66166 2.84756 5.9116 3.02482C7.05929 3.18804 7.74759 3.7464 8.17798 4.25897C8.23979 4.33283 8.37791 4.45691 8.50229 4.45913C8.63583 4.46134 8.75716 4.33578 8.82431 4.25602C9.2547 3.74419 9.943 3.1873 11.0884 3.02482C12.3383 2.84682 15 3.58022 15 6.72728C15 7.6564 14.5292 10.7045 8.82508 13.8973C8.77166 13.9269 8.63201 13.9993 8.49771 14C8.36341 14.0007 8.23292 13.9306 8.18103 13.901L8.18179 13.9018Z" fill="currentColor"/>
      </g>
    </symbol>
    <symbol id="common--icon-arrow" viewBox="0 0 24 25">
      <mask id="mask0_1663_1783" style="mask-type:alpha" maskUnits="userSpaceOnUse" x="0" y="0" width="24" height="24">
        <rect width="24" height="24" fill="currentColor"/>
      </mask>
      <g mask="url(#mask0_1663_1783)">
        <path d="M21 11.9998C21 12.1351 20.8879 12.2597 20.7399 12.4147C19.3303 13.8959 17.0734 16.8337 14.3262 18.4218C12.4827 19.4871 10.1498 19.8274 8.3258 19.1506C6.50698 18.4758 5.75231 16.6346 6.07926 15.2231C6.40622 13.8115 7.62665 12.7649 8.73399 12.2617C8.85223 12.2077 9.02804 12.1077 9.03113 12.0066C9.03421 11.9056 8.85839 11.7938 8.73501 11.7379C7.62665 11.2347 6.42164 10.2547 6.07926 8.77651C5.73688 7.29828 6.50698 5.52283 8.3258 4.84895C10.1498 4.1731 12.4827 4.51249 14.3251 5.57776C17.0714 7.16488 19.3261 10.1007 20.7368 11.5819C20.8859 11.7389 21 11.8644 21 11.9998Z" fill="currentColor"/>
      </g>
    </symbol>
    <symbol id="common--icon-blank" viewBox="0 0 12 12">
      <path d="M0 9.55534V3.33312C0 1.98309 1.09442 0.888672 2.44444 0.888672H6C6.36819 0.888672 6.66667 1.18715 6.66667 1.55534C6.66667 1.92353 6.36819 2.22201 6 2.22201H2.44444C1.83079 2.22201 1.33333 2.71947 1.33333 3.33312V9.55534C1.33333 10.169 1.83079 10.6664 2.44444 10.6664H8.66667C9.28032 10.6664 9.77778 10.169 9.77778 9.55534V5.99978C9.77778 5.63159 10.0763 5.33312 10.4444 5.33312C10.8126 5.33312 11.1111 5.63159 11.1111 5.99978V9.55534C11.1111 10.9054 10.0167 11.9998 8.66667 11.9998H2.44444C1.09442 11.9998 0 10.9054 0 9.55534Z" fill="currentColor"/>
      <path d="M10.6667 3.33333V1.33333H8.66667C8.29848 1.33333 8 1.03486 8 0.666667C8 0.298477 8.29848 0 8.66667 0H11.3333C11.7015 0 12 0.298477 12 0.666667V3.33333C12 3.70152 11.7015 4 11.3333 4C10.9651 4 10.6667 3.70152 10.6667 3.33333Z" fill="currentColor"/>
      <path d="M10.4175 0.639598C10.6778 0.379249 11.0998 0.379249 11.3602 0.639598C11.6205 0.899948 11.6205 1.32196 11.3602 1.58231L8.24905 4.69342C7.9887 4.95377 7.5667 4.95377 7.30635 4.69342C7.046 4.43307 7.046 4.01106 7.30635 3.75071L10.4175 0.639598Z" fill="currentColor"/>
    </symbol>
    <symbol id="common--icon-window" viewBox="0 0 14 13">
      <path d="M12.5 2.25C12.5 2.11193 12.3881 2 12.25 2H4.25C4.11193 2 4 2.11193 4 2.25V8.25C4 8.38807 4.11193 8.5 4.25 8.5H12.25C12.3881 8.5 12.5 8.38807 12.5 8.25V2.25ZM14 8.25C14 9.2165 13.2165 10 12.25 10H4.25C3.2835 10 2.5 9.2165 2.5 8.25V2.25C2.5 1.2835 3.2835 0.5 4.25 0.5H12.25C13.2165 0.5 14 1.2835 14 2.25V8.25Z" fill="currentColor"/>
      <path d="M0 9.15039V3.75C0 3.33579 0.335786 3 0.75 3C1.16421 3 1.5 3.33579 1.5 3.75V9.15039C1.50021 10.1718 2.32819 10.9998 3.34961 11H10.75C11.1642 11 11.5 11.3358 11.5 11.75C11.5 12.1642 11.1642 12.5 10.75 12.5H3.34961C1.49977 12.4998 0.000211025 11.0002 0 9.15039Z" fill="currentColor"/>
    </symbol>
    <symbol id="common--icon-open" viewBox="0 0 14 15">
      <path d="M6.29492 13.5V1.5C6.29492 1.08579 6.63071 0.75 7.04492 0.75C7.45914 0.75 7.79492 1.08579 7.79492 1.5V13.5C7.79492 13.9142 7.45914 14.25 7.04492 14.25C6.63071 14.25 6.29492 13.9142 6.29492 13.5Z" fill="currentColor"/>
      <path d="M13.0449 8.25H1.04492C0.630708 8.25 0.294922 7.91421 0.294922 7.5C0.294922 7.08579 0.630708 6.75 1.04492 6.75L13.0449 6.75C13.4591 6.75 13.7949 7.08579 13.7949 7.5C13.7949 7.91421 13.4591 8.25 13.0449 8.25Z" fill="currentColor"/>
    </symbol>
    <symbol id="common--icon-cart" viewBox="0 0 24 25">
      <mask id="mask0_2106_5880" style="mask-type:alpha" maskUnits="userSpaceOnUse" x="0" y="0" width="24" height="25">
        <rect y="0.5" width="24" height="24" fill="currentColor"/>
      </mask>
      <g mask="url(#mask0_2106_5880)">
        <path d="M7.22182 22.4859C6.69964 22.4859 6.25377 22.3029 5.88421 21.9367C5.51482 21.5704 5.33013 21.1301 5.33013 20.6159C5.33013 20.1016 5.51609 19.6624 5.88802 19.2984C6.25977 18.9346 6.70675 18.7527 7.22893 18.7527C7.75112 18.7527 8.1969 18.9359 8.56629 19.3022C8.93568 19.6684 9.12037 20.1086 9.12037 20.6229C9.12037 21.1373 8.93449 21.5764 8.56274 21.9402C8.19081 22.304 7.74384 22.4859 7.22182 22.4859ZM17.3745 22.4859C16.8523 22.4859 16.4064 22.3029 16.0369 21.9367C15.6675 21.5704 15.4828 21.1301 15.4828 20.6159C15.4828 20.1016 15.6688 19.6624 16.0407 19.2984C16.4124 18.9346 16.8594 18.7527 17.3816 18.7527C17.9038 18.7527 18.3496 18.9359 18.719 19.3022C19.0883 19.6684 19.273 20.1086 19.273 20.6229C19.273 21.1373 19.0872 21.5764 18.7154 21.9402C18.3435 22.304 17.8965 22.4859 17.3745 22.4859ZM6.05782 6.15269L8.73127 11.6194H15.9734L19.0192 6.15269H6.05782ZM5.2286 4.48594H20.188C20.5769 4.48594 20.8728 4.6596 21.0756 5.00694C21.2784 5.3541 21.2811 5.70269 21.0838 6.05269L17.5978 12.2359C17.4117 12.5583 17.1675 12.8139 16.8651 13.0027C16.5627 13.1915 16.2316 13.2859 15.8719 13.2859H8.22364L6.90379 15.6859H18.673C19.0044 15.6859 19.273 15.9546 19.273 16.2859V16.7527C19.273 17.0841 19.0044 17.3527 18.673 17.3527H7.05608C6.32847 17.3527 5.79546 17.0874 5.45704 16.5569C5.11862 16.0263 5.11582 15.4582 5.44866 14.8527L6.98831 12.0694L3.19807 4.16944H1.80129C1.46992 4.16944 1.20129 3.90081 1.20129 3.56944V3.10269C1.20129 2.77132 1.46992 2.50269 1.80129 2.50269H4.09195C4.20753 2.50269 4.31282 2.56908 4.36265 2.67336L5.2286 4.48594Z" fill="currentColor"/>
      </g>
    </symbol>
    <symbol id="common--icon-global" viewBox="0 0 24 25">
      <mask id="mask0_2106_399" style="mask-type:alpha" maskUnits="userSpaceOnUse" x="0" y="0" width="24" height="25">
        <rect y="0.5" width="24" height="24" fill="currentColor"/>
      </mask>
      <g mask="url(#mask0_2106_399)">
        <path d="M12 3.5C16.9706 3.5 21 7.52944 21 12.5C21 17.4706 16.9706 21.5 12 21.5C7.02944 21.5 3 17.4706 3 12.5C3 7.52944 7.02944 3.5 12 3.5ZM14.2188 14.3154C13.6306 14.3789 13.034 14.422 12.4395 14.4434C11.6065 14.4732 10.7562 14.4604 9.91406 14.4053C10.0507 16.3353 10.4574 18.1169 11.1357 19.3779C11.1575 19.4184 11.1749 19.4601 11.1904 19.502C11.4562 19.5323 11.7261 19.5508 12 19.5508C12.3193 19.5508 12.6333 19.5265 12.9414 19.4854C12.9556 19.4491 12.9714 19.413 12.9902 19.3779C13.6791 18.0973 14.0885 16.28 14.2188 14.3154ZM5.01465 13.4463C5.326 15.7664 6.76475 17.7278 8.7627 18.7627C8.29588 17.3826 8.03416 15.7953 7.94629 14.1895C6.90392 14.0246 5.90923 13.7791 5.01465 13.4463ZM19.0176 13.168C18.1828 13.5239 17.2191 13.8069 16.1875 14.0146C16.1108 15.6482 15.8569 17.2695 15.3906 18.6807C17.3869 17.5831 18.7938 15.5484 19.0176 13.168ZM12 5.4502C11.8464 5.4502 11.6941 5.45615 11.543 5.46582C11.5304 5.48736 11.5183 5.50941 11.5039 5.53027C10.6034 6.83199 9.97944 9.33979 9.87598 12.1162C9.87185 12.2271 9.86963 12.3384 9.86719 12.4492C10.6835 12.5095 11.5261 12.5254 12.3691 12.4951C13.0152 12.4719 13.6479 12.4212 14.2559 12.3486C14.2538 12.2713 14.2529 12.1936 14.25 12.1162C14.1465 9.3398 13.5236 6.83199 12.623 5.53027C12.6107 5.51245 12.5998 5.49391 12.5889 5.47559C12.3947 5.45952 12.1984 5.4502 12 5.4502ZM9.03125 6.10449C6.95508 7.06992 5.42841 9.01581 5.04492 11.3477L5.15234 11.3994C5.94006 11.7548 6.88627 12.0241 7.92285 12.209C7.92453 12.1537 7.92568 12.0981 7.92773 12.043C8.00651 9.93008 8.37148 7.79102 9.03125 6.10449ZM15.123 6.17871C15.7622 7.84704 16.1168 9.94435 16.1963 12.0186C17.2764 11.7744 18.2075 11.4484 18.9023 11.0615C18.4571 8.91448 17.036 7.12567 15.123 6.17871Z" fill="currentColor"/>
      </g>
    </symbol>
    <symbol id="common--icon-label" viewBox="0 0 12 12">
      <ellipse cx="5.99839" cy="6" rx="5.99839" ry="6" fill="currentColor"/>
      <path d="M12 10.9999V6.01458C12 5.12362 10.9228 4.67748 10.2928 5.30757L7.80117 7.79991L5.30885 10.2929C4.67902 10.9229 5.12521 11.9999 6.01605 11.9999H11C11.5523 11.9999 12 11.5522 12 10.9999Z" fill="currentColor"/>
    </symbol>
  </defs>
</svg>
