<svg width="17" height="16" viewBox="0 0 17 16" fill="none" xmlns="http://www.w3.org/2000/svg">
<mask id="mask0_1595_982" style="mask-type:alpha" maskUnits="userSpaceOnUse" x="0" y="0" width="17" height="16">
<rect x="0.5" width="16" height="16" fill="#ABABAB"/>
</mask>
<g mask="url(#mask0_1595_982)">
<path d="M8.18179 13.9018C2.47159 10.7074 2 7.65714 2 6.72802C2 3.58096 4.66166 2.84756 5.9116 3.02482C7.05929 3.18804 7.74759 3.7464 8.17798 4.25897C8.23979 4.33283 8.37791 4.45691 8.50229 4.45913C8.63583 4.46134 8.75716 4.33578 8.82431 4.25602C9.2547 3.74419 9.943 3.1873 11.0884 3.02482C12.3383 2.84682 15 3.58022 15 6.72728C15 7.6564 14.5292 10.7045 8.82508 13.8973C8.77166 13.9269 8.63201 13.9993 8.49771 14C8.36341 14.0007 8.23292 13.9306 8.18103 13.901L8.18179 13.9018Z" fill="#E4007F"/>
</g>
</svg>
