<svg width="16" height="16" viewBox="0 0 16 16" fill="none" xmlns="http://www.w3.org/2000/svg">
<mask id="mask0_4497_63348" style="mask-type:alpha" maskUnits="userSpaceOnUse" x="0" y="0" width="16" height="16">
<rect width="16" height="16" fill="#ABABAB"/>
</mask>
<g mask="url(#mask0_4497_63348)">
<path d="M14 7.99986C14 8.0901 13.9253 8.17315 13.8266 8.27647C12.8868 9.26392 11.3823 11.2225 9.55079 12.2812C8.32178 12.9914 6.76651 13.2183 5.55054 12.7671C4.33799 12.3172 3.83487 11.0897 4.05284 10.1487C4.27081 9.20768 5.08443 8.50993 5.82266 8.17446C5.90148 8.13849 6.01869 8.07179 6.02075 8.00443C6.02281 7.93708 5.9056 7.86253 5.82334 7.82525C5.08443 7.48978 4.28109 6.8365 4.05284 5.85101C3.82459 4.86552 4.33799 3.68189 5.55054 3.23263C6.76651 2.78207 8.32178 3.00833 9.5501 3.71851C11.3809 4.77658 12.8841 6.73383 13.8245 7.72128C13.9239 7.82591 14 7.90961 14 7.99986Z" fill="#FFC5E1"/>
</g>
</svg>
