<svg width="30" height="16" viewBox="0 0 30 16" fill="none" xmlns="http://www.w3.org/2000/svg">
<path d="M26.0582 12.0431C23.8467 11.8055 22.4388 10.6457 21.5059 9.26581C21.7645 13.0737 19.9233 16.3645 16.5415 15.9662C12.2198 15.4597 12.5692 10.5584 14.1099 10.2719C19.574 15.0649 21.7959 3.34441 12.2338 1.46843C10.3926 1.10861 8.2126 1.32171 7.49989 1.54878C13.5858 3.01603 10.4485 9.78633 6.2841 7.2955C7.25883 6.77847 7.8807 4.99332 6.40288 4.2038C5.23251 3.57847 3.84204 4.24922 2.9826 5.47891C1.7144 7.29201 1.80873 9.52782 2.86381 10.7261C4.64907 12.7523 6.31904 11.292 6.40288 10.9601C7.99599 12.5287 5.30588 16.2352 2.28387 13.8073C-2.73651 9.78284 0.57547 -0.582225 11.6713 0.0256355C15.3886 0.228256 18.0996 2.43612 20.1993 5.04223C21.3837 6.68066 23.6091 9.35664 25.4712 9.30075C28.0041 9.22389 28.1369 6.90074 27.0329 6.25446C31.3755 6.0204 30.8654 12.5531 26.0582 12.0396V12.0431Z" fill="#94BEC3"/>
<path d="M25.0377 6.32013C24.9994 6.33077 24.9555 6.3095 24.8953 6.27227C24.3257 5.94789 23.2578 5.48524 22.5021 4.73011C21.9928 4.22492 21.6259 3.49106 21.593 2.83165C21.5601 2.17225 21.9709 1.75746 22.3926 1.73087C22.8142 1.70428 23.2414 2.0074 23.5098 2.32646C23.5371 2.35837 23.5864 2.40623 23.6138 2.40091C23.6412 2.39028 23.6521 2.32646 23.6521 2.2786C23.6521 1.86913 23.7781 1.38521 24.1396 1.13528C24.501 0.885339 25.076 0.970424 25.4703 1.50752C25.8701 2.0393 26.0563 2.83697 25.9851 3.53892C25.8811 4.58653 25.3498 5.59691 25.1144 6.19251C25.087 6.25632 25.0705 6.30418 25.0322 6.31482L25.0377 6.32013Z" fill="#94BEC3"/>
</svg>
