<svg width="24" height="24" viewBox="0 0 24 24" fill="none" xmlns="http://www.w3.org/2000/svg">
<path d="M12.1545 4C12.1545 4 19.2573 4.00012 21.0276 4.47754C22.0041 4.74087 22.7738 5.51503 23.0344 6.49805C23.5093 8.28127 23.51 12 23.51 12C23.51 12.0011 23.5092 15.7203 23.0344 17.502C22.7738 18.485 22.0041 19.2591 21.0276 19.5225C19.2573 19.9999 12.1545 20 12.1545 20C12.0977 20 5.04693 19.998 3.28247 19.5225C2.30578 19.2592 1.53529 18.4851 1.27466 17.502C0.7999 15.719 0.800049 12.0011 0.800049 12C0.800049 12 0.79983 8.28129 1.27466 6.49805C1.53529 5.51488 2.30578 4.74081 3.28247 4.47754C5.04565 4.00205 12.0977 4.00001 12.1545 4ZM9.83228 15.377L15.7678 12L9.83228 8.62305V15.377Z" fill="#FF0000"/>
<path d="M9.83203 15.3768L15.7675 12L9.83203 8.62326V15.3768Z" fill="white"/>
</svg>
