<svg width="120" height="120" viewBox="0 0 120 120" fill="none" xmlns="http://www.w3.org/2000/svg">
<path d="M2.87332 30.947C3.53696 30.2833 4.81382 29.5693 5.84708 30.611C6.3175 31.0814 6.46871 31.8374 5.79667 32.5179C5.19184 33.1227 3.81417 32.8371 3.67976 31.6694C2.77252 32.4003 2.89852 33.9543 3.62096 34.6936C6.3343 37.4573 10.4169 32.5179 9.14845 26.2931C9.23245 28.5529 7.61117 29.3425 6.3595 29.2669C3.22614 29.0569 3.31014 24.5879 5.99828 24.3862C7.19115 24.3442 7.56917 25.6799 6.90553 26.3183C6.43511 26.772 5.33465 26.9148 4.97343 25.7471C4.3434 26.5872 4.88103 28.2504 6.3595 28.3512C7.42636 28.4269 8.61922 27.1164 8.35881 25.7975C6.98953 18.9092 11.929 13.8437 17.6497 17.6827C13.8107 11.962 18.8762 7.01414 25.7645 8.39181C27.0834 8.65222 28.4023 7.45936 28.3182 6.39251C28.209 4.91403 26.5542 4.368 25.7141 5.00643C26.8818 5.35925 26.7474 6.46811 26.2853 6.93853C25.6469 7.59377 24.3112 7.22415 24.3532 6.03129C24.5549 3.34315 29.0239 3.25914 29.2339 6.39251C29.3179 7.64417 28.5199 9.26546 26.2601 9.18145C32.4849 10.4415 37.4243 6.3673 34.6606 3.65396C33.9213 2.93153 32.3757 2.80552 31.6364 3.71277C32.8125 3.84717 33.0897 5.22485 32.4849 5.82968C31.8128 6.50171 31.0484 6.3505 30.578 5.88008C29.5447 4.84683 30.2503 3.56996 30.914 2.90632C32.0816 1.73866 34.1902 1.75546 35.383 2.94833C38.6088 6.17409 33.8709 11.458 27.075 10.0719C27.5538 10.6179 27.9234 11.6512 27.5874 12.3568C26.1089 15.4734 22.0515 12.9532 23.7652 11.2396C24.1936 10.8111 24.9077 10.8279 25.3445 11.2648C25.9661 11.8864 25.6049 12.8524 25.0085 13.0961C25.6637 13.2305 26.487 12.9112 26.7642 12.1048C27.6798 9.44186 22.0767 8.50102 20.4218 9.38306C21.7995 9.27386 22.7404 10.4583 22.5051 11.5168C22.2447 12.6928 20.7747 13.3313 20.111 12.5668C19.8338 12.2476 19.8086 11.7772 20.111 11.4748C20.4134 11.1724 20.9007 11.1724 21.2031 11.4748C21.4047 11.6764 21.4719 11.9536 21.4047 12.214C21.6735 12.0628 21.9675 11.7688 21.9927 11.416C22.2111 8.66062 16.2468 9.40826 17.1457 15.0618C17.5825 13.2221 19.5146 13.3565 20.153 14.3309C21.1359 15.8346 19.3298 17.5399 18.3973 16.5738C18.1621 16.3302 18.1537 15.9438 18.3973 15.7002C18.6409 15.4566 19.0274 15.4566 19.271 15.7002C19.397 15.8262 19.4558 16.0026 19.4474 16.1706C19.7414 15.9354 19.985 15.465 19.8506 15.0702C19.187 13.0793 14.9784 14.5241 20.1866 19.7324C20.3378 19.8836 20.3462 20.1692 20.2118 20.2616C20.1194 20.396 19.8338 20.3876 19.6826 20.2364C14.4743 15.0282 13.0294 19.2368 15.0204 19.9004C15.4236 20.0348 15.8856 19.7912 16.1208 19.4972C15.9528 19.5056 15.7848 19.4468 15.6504 19.3208C15.4068 19.0772 15.4068 18.6907 15.6504 18.4471C15.894 18.2035 16.2804 18.2119 16.524 18.4471C17.4901 19.3796 15.7848 21.1773 14.2811 20.2028C13.3067 19.5644 13.1723 17.6323 15.012 17.1955C9.35846 16.2966 8.61082 22.2609 11.3662 22.0425C11.719 22.0173 12.0046 21.7233 12.1642 21.4545C11.9122 21.5217 11.6266 21.4545 11.425 21.2529C11.1226 20.9505 11.1226 20.4632 11.425 20.1608C11.7274 19.8584 12.1978 19.8836 12.517 20.1608C13.2815 20.8245 12.6346 22.3029 11.467 22.5549C10.4001 22.7902 9.22405 21.8493 9.33326 20.4716C8.45121 22.1265 9.39206 27.7296 12.055 26.814C12.8614 26.5368 13.1807 25.7135 13.0463 25.0583C12.8026 25.6547 11.8366 26.0243 11.215 25.3943C10.7865 24.9659 10.7613 24.2518 11.1898 23.815C12.9034 22.1013 15.4236 26.1587 12.307 27.6372C11.6014 27.9732 10.5681 27.6036 10.0221 27.1248C11.4082 33.9207 6.12429 38.6586 2.89852 35.4328C1.70566 34.24 1.68886 32.1398 2.85652 30.9638L2.87332 30.947Z" fill="#EB718D"/>
<path d="M16.9176 10.2061C15.2459 11.525 13.7674 9.50891 14.9351 8.82008C15.5483 8.45886 16.1951 9.2653 15.8003 9.74412C17.6988 8.48406 16.0103 6.44275 14.5739 7.48441C13.2298 8.45886 14.305 11.6846 15.6743 14.3644C13.5322 12.2559 11.8857 8.15644 14.0698 6.58556C16.506 4.82987 19.3117 8.31605 16.926 10.1893L16.9176 10.2061Z" fill="#EB718D"/>
<path d="M7.44725 12.5671C7.16164 12.6175 6.66601 12.4663 6.64921 11.9455C6.59881 10.4838 9.01814 10.6518 10.1102 11.6095C8.3293 11.5003 8.15289 12.4327 7.44725 12.5671Z" fill="#EB718D"/>
<path d="M12.5574 7.45116C12.6078 7.16555 12.4566 6.66992 11.9357 6.65312C10.4741 6.60272 10.6421 9.02204 11.5997 10.1141C11.4905 8.33321 12.423 8.1568 12.5574 7.45116Z" fill="#EB718D"/>
<path d="M10.2101 16.9186C11.5289 15.2469 9.51282 13.7684 8.82398 14.936C8.46276 15.5493 9.2692 16.1961 9.74803 15.8013C8.48796 17.6998 6.44666 16.0113 7.48831 14.5748C8.46276 13.2308 11.6885 14.306 14.3683 15.6753C12.2598 13.5332 8.16035 11.8867 6.58947 14.0708C4.83377 16.5069 8.31996 19.3127 10.1933 16.927L10.2101 16.9186Z" fill="#EB718D"/>
<path d="M9.67939 9.66919L9.52818 9.71959C6.78964 10.4924 5.70598 9.70279 5.42037 9.41718C4.45432 8.45113 5.04235 7.40107 5.48757 7.07346C5.89079 6.77104 6.27721 6.72904 6.56283 6.75424C6.60483 6.75424 6.68883 6.75424 6.72244 6.71224C6.76444 6.67023 6.76444 6.59463 6.75604 6.55263C6.73084 6.26701 6.77284 5.88059 7.07525 5.47737C7.40287 5.04055 8.45293 4.44412 9.41898 5.41017C9.70459 5.69578 10.4942 6.77944 9.72139 9.51798L9.67939 9.66919Z" fill="#EB718D"/>
<path d="M11.2072 11.719C11.4855 11.719 11.7112 11.4933 11.7112 11.215C11.7112 10.9366 11.4855 10.7109 11.2072 10.7109C10.9288 10.7109 10.7031 10.9366 10.7031 11.215C10.7031 11.4933 10.9288 11.719 11.2072 11.719Z" fill="#EB718D"/>
<path d="M3.38238 50.9484C3.7489 50.9484 4.04602 50.6512 4.04602 50.2847C4.04602 49.9182 3.7489 49.6211 3.38238 49.6211C3.01587 49.6211 2.71875 49.9182 2.71875 50.2847C2.71875 50.6512 3.01587 50.9484 3.38238 50.9484Z" fill="#EB718D"/>
<path d="M3.38238 62.9689C3.7489 62.9689 4.04602 62.6718 4.04602 62.3052C4.04602 61.9387 3.7489 61.6416 3.38238 61.6416C3.01587 61.6416 2.71875 61.9387 2.71875 62.3052C2.71875 62.6718 3.01587 62.9689 3.38238 62.9689Z" fill="#EB718D"/>
<path d="M3.38238 74.2765C3.7489 74.2765 4.04602 73.9794 4.04602 73.6129C4.04602 73.2463 3.7489 72.9492 3.38238 72.9492C3.01587 72.9492 2.71875 73.2463 2.71875 73.6129C2.71875 73.9794 3.01587 74.2765 3.38238 74.2765Z" fill="#EB718D"/>
<path d="M3.88305 83.382C3.88305 83.6592 3.65624 83.886 3.37903 83.886C3.10181 83.886 2.875 83.6592 2.875 83.382C2.875 83.1047 3.10181 82.8779 3.37903 82.8779C3.65624 82.8779 3.88305 83.1047 3.88305 83.382Z" fill="#EB718D"/>
<path d="M3.88305 92.4552C3.88305 92.7324 3.65624 92.9592 3.37903 92.9592C3.10181 92.9592 2.875 92.7324 2.875 92.4552C2.875 92.178 3.10181 91.9512 3.37903 91.9512C3.65624 91.9512 3.88305 92.178 3.88305 92.4552Z" fill="#EB718D"/>
<path d="M3.88305 100.31C3.88305 100.587 3.65624 100.814 3.37903 100.814C3.10181 100.814 2.875 100.587 2.875 100.31C2.875 100.032 3.10181 99.8057 3.37903 99.8057C3.65624 99.8057 3.88305 100.032 3.88305 100.31Z" fill="#EB718D"/>
<path d="M3.88305 106.945C3.88305 107.223 3.65624 107.449 3.37903 107.449C3.10181 107.449 2.875 107.223 2.875 106.945C2.875 106.668 3.10181 106.441 3.37903 106.441C3.65624 106.441 3.88305 106.668 3.88305 106.945Z" fill="#EB718D"/>
<path d="M3.38431 63.7842C5.41721 67.934 4.76198 70.5381 3.38431 72.4366C2.00664 70.5381 1.3514 67.934 3.38431 63.7842Z" fill="#EB718D"/>
<path d="M3.38431 39.8008C5.41721 43.9506 4.76198 46.5547 3.38431 48.4532C2.00664 46.5547 1.3514 43.9506 3.38431 39.8008Z" fill="#EB718D"/>
<path d="M3.38431 52.3086C5.41721 56.4584 4.76198 59.0625 3.38431 60.961C2.00664 59.0625 1.3514 56.4584 3.38431 52.3086Z" fill="#EB718D"/>
<path d="M3.38775 74.7383C5.17705 78.3925 4.60582 80.6858 3.38775 82.3575C2.16969 80.6858 1.59846 78.3925 3.38775 74.7383Z" fill="#EB718D"/>
<path d="M3.38055 84.668C4.92624 87.8265 4.43061 89.809 3.38055 91.2539C2.3305 89.809 1.83487 87.8265 3.38055 84.668Z" fill="#EB718D"/>
<path d="M3.384 93.5713C4.68607 96.2426 4.27445 97.9143 3.384 99.1324C2.49356 97.9143 2.08193 96.2426 3.384 93.5713Z" fill="#EB718D"/>
<path d="M3.38021 101.443C4.44707 103.619 4.10265 104.98 3.38021 105.971C2.65778 104.98 2.31336 103.611 3.38021 101.443Z" fill="#EB718D"/>
<path d="M3.38283 108.037C2.34957 109.835 2.97961 111.137 3.38283 111.767C3.78605 111.128 4.41608 109.835 3.38283 108.037Z" fill="#EB718D"/>
<path d="M50.2808 4.04895C50.642 4.04895 50.9445 3.75493 50.9445 3.38531C50.9445 3.0241 50.6504 2.72168 50.2808 2.72168C49.9112 2.72168 49.6172 3.0157 49.6172 3.38531C49.6172 3.74653 49.9112 4.04895 50.2808 4.04895Z" fill="#EB718D"/>
<path d="M62.3043 4.04895C62.6655 4.04895 62.9679 3.75493 62.9679 3.38531C62.9679 3.0241 62.6739 2.72168 62.3043 2.72168C61.9346 2.72168 61.6406 3.0157 61.6406 3.38531C61.6406 3.74653 61.9346 4.04895 62.3043 4.04895Z" fill="#EB718D"/>
<path d="M73.6089 4.04895C73.9702 4.04895 74.2726 3.75493 74.2726 3.38531C74.2726 3.0157 73.9786 2.72168 73.6089 2.72168C73.2393 2.72168 72.9453 3.0157 72.9453 3.38531C72.9453 3.74653 73.2393 4.04895 73.6089 4.04895Z" fill="#EB718D"/>
<path d="M83.379 3.88891C83.6562 3.88891 83.883 3.6621 83.883 3.38489C83.883 3.10767 83.6562 2.88086 83.379 2.88086C83.1018 2.88086 82.875 3.10767 82.875 3.38489C82.875 3.6621 83.1018 3.88891 83.379 3.88891Z" fill="#EB718D"/>
<path d="M92.4493 3.88891C92.7266 3.88891 92.9534 3.6621 92.9534 3.38489C92.9534 3.10767 92.7266 2.88086 92.4493 2.88086C92.1721 2.88086 91.9453 3.10767 91.9453 3.38489C91.9453 3.6621 92.1721 3.88891 92.4493 3.88891Z" fill="#EB718D"/>
<path d="M100.309 3.88891C100.586 3.88891 100.813 3.6621 100.813 3.38489C100.813 3.10767 100.586 2.88086 100.309 2.88086C100.032 2.88086 99.8047 3.10767 99.8047 3.38489C99.8047 3.6621 100.032 3.88891 100.309 3.88891Z" fill="#EB718D"/>
<path d="M106.942 3.88891C107.219 3.88891 107.446 3.6621 107.446 3.38489C107.446 3.10767 107.219 2.88086 106.942 2.88086C106.664 2.88086 106.438 3.10767 106.438 3.38489C106.438 3.6621 106.664 3.88891 106.942 3.88891Z" fill="#EB718D"/>
<path d="M63.7734 3.38529C67.9233 5.41819 70.5274 4.76296 72.4259 3.38529C70.5274 2.00761 67.9233 1.35238 63.7734 3.38529Z" fill="#EB718D"/>
<path d="M39.7969 3.38529C43.9467 5.41819 46.5508 4.76296 48.4493 3.38529C46.5508 2.00761 43.9467 1.35238 39.7969 3.38529Z" fill="#EB718D"/>
<path d="M52.3047 3.38529C56.4545 5.41819 59.0586 4.76296 60.9571 3.38529C59.0586 2.00761 56.4545 1.35238 52.3047 3.38529Z" fill="#EB718D"/>
<path d="M74.7344 3.3858C78.3886 5.17509 80.6819 4.60386 82.3536 3.3858C80.6819 2.16774 78.3886 1.59651 74.7344 3.3858Z" fill="#EB718D"/>
<path d="M84.6641 3.38544C87.8226 4.93112 89.8051 4.43549 91.25 3.38544C89.8051 2.33538 87.8226 1.83976 84.6641 3.38544Z" fill="#EB718D"/>
<path d="M93.5703 3.38596C96.2417 4.68802 97.9133 4.2764 99.1314 3.38596C97.9133 2.49551 96.2417 2.08389 93.5703 3.38596Z" fill="#EB718D"/>
<path d="M101.438 3.3851C103.613 4.45195 104.974 4.10754 105.965 3.3851C104.974 2.66266 103.605 2.31824 101.438 3.3851Z" fill="#EB718D"/>
<path d="M108.031 3.38576C109.829 2.3525 111.131 2.98254 111.761 3.38576C111.123 3.78898 109.829 4.41901 108.031 3.38576Z" fill="#EB718D"/>
<path d="M113.521 4.05664C112.891 4.51866 113.177 4.93869 112.975 5.1739C112.891 5.2747 112.69 5.35871 112.538 5.1907C112.118 4.72028 112.925 4.05664 113.521 4.05664Z" fill="#EB718D"/>
<path d="M114.557 4.31694C114.557 4.51015 114.397 4.67816 114.196 4.67816H114.103C113.91 4.67816 113.742 4.51855 113.742 4.31694V3.38449V2.45204C113.742 2.25883 113.902 2.09082 114.103 2.09082H114.196C114.389 2.09082 114.557 2.25043 114.557 2.45204V3.38449V4.31694Z" fill="#EB718D"/>
<path d="M112.975 1.58719C113.177 1.8308 112.891 2.25082 113.521 2.70444C112.925 2.70444 112.118 2.04081 112.538 1.57038C112.69 1.40238 112.9 1.48638 112.975 1.58719Z" fill="#EB718D"/>
<path d="M115.93 4.7967C116.123 4.7967 116.3 4.8807 116.409 5.01511C116.501 5.14111 116.535 5.29232 116.501 5.45193C116.443 5.70394 116.216 5.82155 116.022 5.82155C115.871 5.82155 115.737 5.75435 115.644 5.64514C115.644 5.77955 115.703 6.06516 116.081 6.11557C116.115 6.11557 116.149 6.11557 116.182 6.11557C116.417 6.11557 116.602 5.98116 116.711 5.70394C116.787 5.51913 116.77 5.30912 116.661 5.09071C116.451 4.68749 115.964 4.36827 115.342 4.23387L115.275 4.21707L115.3 3.90625H115.451C116.107 3.90625 116.762 4.17506 117.123 4.60349C117.392 4.9227 117.501 5.31752 117.425 5.73755C117.308 6.44318 116.745 6.754 116.241 6.754C115.913 6.754 115.611 6.62799 115.418 6.40118C115.224 6.18277 115.14 5.88875 115.182 5.55274C115.25 5.01511 115.611 4.7799 115.947 4.7799L115.93 4.7967Z" fill="#EB718D"/>
<path d="M117.142 3.30097C117.982 1.80569 118.78 1.67969 119.024 1.67969C119.847 1.67969 120.041 2.37692 119.99 2.70454C119.948 3.00696 119.797 3.18337 119.671 3.30097C119.654 3.31777 119.621 3.35137 119.621 3.38498C119.621 3.41858 119.654 3.45218 119.671 3.46898C119.805 3.57819 119.948 3.763 119.99 4.06541C120.041 4.39303 119.847 5.09027 119.024 5.09027C118.78 5.09027 117.982 4.96426 117.142 3.46898C117.142 3.45218 117.117 3.41858 117.117 3.38498C117.117 3.35137 117.134 3.31777 117.142 3.30097Z" fill="#EB718D"/>
<path d="M115.452 2.85615H115.301L115.276 2.54533L115.343 2.52853C115.956 2.39412 116.452 2.07491 116.662 1.67169C116.771 1.46168 116.788 1.25167 116.713 1.06686C116.603 0.798042 116.418 0.655234 116.183 0.655234C116.15 0.655234 116.116 0.655234 116.082 0.655234C115.704 0.714037 115.654 0.991252 115.646 1.12566C115.73 1.00805 115.872 0.949249 116.024 0.949249C116.217 0.949249 116.444 1.06686 116.502 1.31887C116.544 1.47848 116.502 1.63809 116.41 1.75569C116.301 1.8901 116.124 1.9741 115.931 1.9741C115.595 1.9741 115.234 1.73049 115.167 1.20126C115.125 0.865245 115.209 0.57123 115.402 0.352818C115.604 0.126007 115.906 0 116.234 0C116.746 0 117.309 0.310816 117.418 1.01645C117.485 1.44488 117.385 1.8397 117.116 2.15051C116.755 2.57893 116.099 2.84775 115.444 2.84775L115.452 2.85615Z" fill="#EB718D"/>
<path d="M2.71421 113.524C2.25219 112.894 1.83216 113.18 1.59695 112.978C1.49615 112.894 1.41214 112.692 1.58015 112.541C2.05057 112.121 2.71421 112.928 2.71421 113.524Z" fill="#EB718D"/>
<path d="M2.45497 114.558C2.26176 114.558 2.09375 114.398 2.09375 114.197V114.104C2.09375 113.911 2.25336 113.743 2.45497 113.743H3.38742H4.31987C4.51308 113.743 4.68108 113.903 4.68108 114.104V114.197C4.68108 114.39 4.52148 114.558 4.31987 114.558H3.38742H2.45497Z" fill="#EB718D"/>
<path d="M5.17195 112.978C4.92833 113.18 4.50831 112.894 4.05469 113.524C4.05469 112.928 4.71832 112.121 5.18875 112.541C5.35676 112.692 5.27275 112.902 5.17195 112.978Z" fill="#EB718D"/>
<path d="M1.9741 115.935C1.9741 116.128 1.8901 116.304 1.75569 116.413C1.62968 116.506 1.47848 116.539 1.31887 116.506C1.06686 116.447 0.949249 116.22 0.949249 116.027C0.949249 115.834 1.01645 115.741 1.12566 115.649C0.991252 115.649 0.705637 115.708 0.655234 116.086C0.655234 116.119 0.655234 116.153 0.655234 116.187C0.655234 116.422 0.789641 116.607 1.06686 116.716C1.25167 116.791 1.46168 116.775 1.68009 116.665C2.08331 116.455 2.40253 115.968 2.53693 115.347L2.55373 115.279L2.86455 115.305V115.456C2.86455 116.111 2.59574 116.766 2.16731 117.127C1.8481 117.396 1.45328 117.505 1.03325 117.43C0.310816 117.312 0 116.749 0 116.237C0 115.909 0.126007 115.607 0.352818 115.414C0.57123 115.221 0.865245 115.137 1.20126 115.179C1.73889 115.246 1.9741 115.607 1.9741 115.943V115.935Z" fill="#EB718D"/>
<path d="M3.46898 117.144C4.96426 117.984 5.09027 118.782 5.09027 119.026C5.09027 119.849 4.39303 120.042 4.06541 119.992C3.763 119.95 3.58659 119.799 3.46898 119.673C3.45218 119.656 3.41858 119.622 3.38498 119.622C3.35137 119.622 3.31777 119.656 3.30097 119.673C3.19177 119.807 3.00696 119.95 2.70454 119.992C2.37692 120.042 1.67969 119.849 1.67969 119.026C1.67969 118.782 1.80569 117.984 3.30097 117.144C3.31777 117.144 3.35137 117.119 3.38498 117.119C3.41858 117.119 3.45218 117.136 3.46898 117.144Z" fill="#EB718D"/>
<path d="M3.91406 115.456V115.305L4.22488 115.28L4.24168 115.347C4.37609 115.96 4.6953 116.456 5.09852 116.666C5.30854 116.775 5.51855 116.792 5.70336 116.716C5.97217 116.607 6.11498 116.422 6.11498 116.187C6.11498 116.154 6.11498 116.12 6.11498 116.086C6.05617 115.708 5.77896 115.658 5.64455 115.65C5.76216 115.734 5.82096 115.876 5.82096 116.028C5.82096 116.221 5.70336 116.448 5.45134 116.506C5.29173 116.548 5.13213 116.506 5.01452 116.414C4.88011 116.305 4.79611 116.128 4.79611 115.935C4.79611 115.599 5.03972 115.238 5.56895 115.171C5.90497 115.129 6.19898 115.213 6.41739 115.406C6.6358 115.608 6.77021 115.902 6.77021 116.229C6.77021 116.742 6.45939 117.304 5.75376 117.414C5.32534 117.481 4.93052 117.38 4.6197 117.111C4.19128 116.75 3.92246 116.095 3.92246 115.44L3.91406 115.456Z" fill="#EB718D"/>
</svg>
