<svg width="60" height="60" viewBox="0 0 60 60" fill="none" xmlns="http://www.w3.org/2000/svg">
<path d="M1.53568 50.377C2.6923 49.2204 4.91768 47.9759 6.71848 49.7914C7.53836 50.6113 7.8019 51.9289 6.63064 53.1148C5.57651 54.1689 3.17544 53.6712 2.94119 51.6361C1.35999 52.9099 1.5796 55.6184 2.8387 56.9068C7.56764 61.7235 14.683 53.1148 12.4723 42.2661C12.6187 46.2044 9.79303 47.5806 7.61157 47.4489C2.15059 47.0829 2.297 39.294 6.98202 38.9426C9.06099 38.8694 9.71983 41.1973 8.56321 42.31C7.74333 43.1006 5.8254 43.3495 5.19585 41.3144C4.0978 42.7785 5.03481 45.6773 7.61157 45.853C9.47093 45.9848 11.5499 43.7009 11.0961 41.4023C8.70962 29.3969 17.3183 20.5686 27.2887 27.2594C20.5979 17.2891 29.4262 8.6657 41.4316 11.0668C43.7301 11.5206 46.0287 9.44165 45.8823 7.58228C45.692 5.00552 42.8078 4.05388 41.3437 5.16657C43.3788 5.78148 43.1445 7.71405 42.3393 8.53393C41.2266 9.6759 38.8987 9.03171 38.9719 6.95273C39.3233 2.26772 47.1121 2.12131 47.4782 7.58228C47.6246 9.76375 46.2337 12.5894 42.2954 12.443C53.1441 14.6391 61.7528 7.53836 56.936 2.80942C55.6477 1.55032 52.9538 1.33071 51.6654 2.91191C53.7151 3.14616 54.1982 5.54723 53.1441 6.60136C51.9728 7.77261 50.6406 7.50908 49.8207 6.6892C48.0199 4.8884 49.2497 2.66301 50.4063 1.5064C52.4414 -0.528655 56.1162 -0.499374 58.1951 1.5796C63.8172 7.20163 55.5598 16.4106 43.7155 13.9949C44.55 14.9465 45.1942 16.7474 44.6086 17.9772C42.0318 23.4089 34.9604 19.0167 37.9471 16.03C38.6937 15.2833 39.9382 15.3126 40.6995 16.0739C41.7829 17.1573 41.1534 18.841 40.1139 19.2656C41.2559 19.4998 42.6907 18.9435 43.1738 17.538C44.7696 12.8969 35.0043 11.2571 32.1201 12.7944C34.5212 12.604 36.1609 14.6684 35.751 16.5131C35.2971 18.5628 32.735 19.6755 31.5784 18.3432C31.0952 17.7868 31.0513 16.967 31.5784 16.4399C32.1054 15.9128 32.9546 15.9128 33.4817 16.4399C33.833 16.7913 33.9502 17.2744 33.833 17.7283C34.3015 17.4647 34.814 16.9523 34.8579 16.3374C35.2385 11.5353 24.8437 12.8383 26.4102 22.6915C27.1715 19.4852 30.5389 19.7194 31.6516 21.4177C33.3645 24.0384 30.2168 27.0105 28.5917 25.3268C28.1817 24.9022 28.1671 24.2287 28.5917 23.8042C29.0163 23.3796 29.6897 23.3796 30.1143 23.8042C30.3339 24.0238 30.4364 24.3312 30.4218 24.624C30.9342 24.2141 31.3588 23.3942 31.1245 22.7061C29.9679 19.2363 22.6329 21.7545 31.7101 30.8317C31.9737 31.0952 31.9883 31.593 31.7541 31.7541C31.593 31.9883 31.0952 31.9737 30.8317 31.7101C21.7545 22.6329 19.2363 29.9679 22.7061 31.1245C23.4089 31.3588 24.2141 30.9342 24.624 30.4218C24.3312 30.4364 24.0384 30.3339 23.8042 30.1143C23.3796 29.6897 23.3796 29.0162 23.8042 28.5917C24.2287 28.1671 24.9022 28.1817 25.3268 28.5917C27.0105 30.2168 24.0384 33.3499 21.4177 31.6516C19.7194 30.5389 19.4852 27.1715 22.6915 26.4102C12.8383 24.8437 11.5353 35.2385 16.3374 34.8579C16.9523 34.814 17.4501 34.3015 17.7283 33.833C17.2891 33.9502 16.7913 33.833 16.4399 33.4817C15.9128 32.9546 15.9128 32.1054 16.4399 31.5784C16.967 31.0513 17.7868 31.0952 18.3432 31.5784C19.6755 32.735 18.5482 35.3117 16.5131 35.751C14.6537 36.1609 12.604 34.5211 12.7944 32.1201C11.2571 35.0043 12.8969 44.7696 17.538 43.1738C18.9435 42.6907 19.4998 41.2559 19.2656 40.1139C18.841 41.1534 17.1573 41.7976 16.0739 40.6995C15.3272 39.9528 15.2833 38.7084 16.03 37.9471C19.0167 34.9604 23.4089 42.0318 17.9772 44.6086C16.7474 45.1942 14.9466 44.55 13.9949 43.7155C16.4106 55.5598 7.20163 63.8172 1.5796 58.1951C-0.499374 56.1162 -0.528655 52.456 1.5064 50.4063L1.53568 50.377Z" fill="#FFB8DA"/>
<path d="M25.8314 14.4076C22.8062 16.7163 20.1306 13.187 22.2437 11.9811C23.3535 11.3488 24.524 12.7605 23.8095 13.5988C27.2452 11.3929 24.1896 7.81944 21.59 9.64294C19.1576 11.3488 21.1035 16.9957 23.5815 21.6868C19.7049 17.9957 16.7253 10.8194 20.6779 8.06944C25.0865 4.99597 30.1641 11.0988 25.8466 14.3781L25.8314 14.4076Z" fill="#FFB8DA"/>
<path d="M9.44661 18.0599C8.90982 18.1239 7.97835 17.9318 7.94677 17.2702C7.85204 15.4133 12.3989 15.6268 14.4513 16.8433C11.1043 16.7046 10.7728 17.8891 9.44661 18.0599Z" fill="#FFB8DA"/>
<path d="M18.0555 9.45247C18.1195 8.91568 17.9274 7.98421 17.2658 7.95263C15.4089 7.8579 15.6224 12.4048 16.8389 14.4572C16.7002 11.1102 17.8847 10.7786 18.0555 9.45247Z" fill="#FFB8DA"/>
<path d="M14.3973 25.8146C16.7061 22.7893 13.1767 20.1137 11.9709 22.2269C11.3385 23.3366 12.7503 24.5072 13.5885 23.7927C11.3827 27.2284 7.80919 24.1727 9.63269 21.5732C11.3385 19.1408 16.9855 21.0867 21.6766 23.5646C17.9855 19.6881 10.8091 16.7084 8.05918 20.661C4.98571 25.0697 11.0885 30.1472 14.3679 25.8298L14.3973 25.8146Z" fill="#FFB8DA"/>
<path d="M13.0878 13.0963L12.8332 13.1811C8.22289 14.4806 6.39856 13.1528 5.91773 12.6726C4.29139 11.0481 5.28134 9.28243 6.03087 8.73153C6.70968 8.22301 7.36022 8.15238 7.84105 8.19476C7.91176 8.19476 8.05318 8.19476 8.10975 8.12413C8.18046 8.0535 8.18046 7.92637 8.16632 7.85574C8.12389 7.37547 8.1946 6.7257 8.70372 6.04767C9.25526 5.31314 11.023 4.31022 12.6494 5.93466C13.1302 6.41493 14.4595 8.23713 13.1585 12.8421L13.0878 13.0963Z" fill="#FFB8DA"/>
<path d="M16.2562 17.3506C16.8551 17.3506 17.3406 16.8651 17.3406 16.2662C17.3406 15.6674 16.8551 15.1819 16.2562 15.1819C15.6574 15.1819 15.1719 15.6674 15.1719 16.2662C15.1719 16.8651 15.6574 17.3506 16.2562 17.3506Z" fill="#FFB8DA"/>
</svg>
