<svg width="300" height="70" viewBox="0 0 300 70" fill="none" xmlns="http://www.w3.org/2000/svg">
<mask id="mask0_3244_25569" style="mask-type:alpha" maskUnits="userSpaceOnUse" x="0" y="0" width="300" height="70">
<rect width="300" height="70" fill="#D9D9D9"/>
</mask>
<g mask="url(#mask0_3244_25569)">
<path d="M168.012 21.8469C170.485 11.7807 181.414 12.1143 187.49 21.2255C188.687 23.0046 191.519 23.1485 192.625 21.8534C194.168 20.0612 192.919 17.5823 191.251 17.3534C192.174 19.067 190.767 20.1659 189.714 20.179C188.256 20.1986 187.163 18.2756 188.557 16.974C191.814 14.168 196.948 19.1128 193.652 22.8868C192.337 24.3912 189.603 25.32 187.15 22.6775C192.749 31.1216 202.92 32.0962 202.861 25.9152C202.841 24.2669 201.239 22.3832 199.381 22.5729C200.559 24.0511 199.316 25.9152 197.949 25.9152C196.432 25.9152 195.738 24.8818 195.738 23.8222C195.738 21.4937 197.975 20.8461 199.473 20.8461C202.109 20.8461 204.464 23.2466 204.464 25.9348C204.464 33.2146 193.161 33.8295 187.059 24.6005C186.98 25.7582 186.235 27.3411 185.057 27.7531C179.877 29.5976 178.144 22.1804 182.009 22.1804C182.977 22.1804 183.762 23.0046 183.762 23.9922C183.762 25.3919 182.264 26.0787 181.316 25.6797C181.905 26.5693 183.193 27.1383 184.416 26.5431C188.452 24.5743 183.193 17.1899 180.335 16.3199C182.009 17.7524 181.735 20.1463 180.276 21.075C178.654 22.1085 176.28 21.1666 176.391 19.5576C176.437 18.8839 176.94 18.3279 177.62 18.3279C178.301 18.3279 178.85 18.8774 178.85 19.5576C178.85 20.0155 178.615 20.4014 178.242 20.6172C178.713 20.748 179.38 20.748 179.805 20.3817C183.16 17.5234 175.586 11.6368 170.223 19.0278C172.793 17.4449 174.821 19.7734 174.442 21.5983C173.853 24.4043 169.896 24.2865 169.929 22.1477C169.935 21.6048 170.367 21.1601 170.916 21.1601C171.466 21.1601 171.904 21.5983 171.904 22.1477C171.904 22.429 171.773 22.6972 171.57 22.8803C172.165 22.9457 172.97 22.6906 173.264 22.0954C174.599 19.4202 169.667 16.6535 168.588 24.437C168.529 24.8621 168.117 24.9014 167.907 24.7967C167.652 24.6724 167.607 24.4762 167.62 24.0707C167.639 23.312 167.934 22.0758 167.986 21.8469H168.012Z" fill="#FFC5E1"/>
<path d="M157.507 25.9478C154.053 25.4834 154.609 21.4674 156.754 22.056C157.879 22.3635 157.729 24.0379 156.722 24.1164C160.371 24.9143 160.705 20.6236 157.847 20.12C155.172 19.6491 152.771 24.5611 151.339 29.2051C151.221 24.3061 153.935 17.7326 158.272 18.511C163.112 19.3743 162.451 26.6084 157.533 25.9412H157.507V25.9478Z" fill="#FFC5E1"/>
<path d="M144.548 17.7196C144.162 17.4122 143.678 16.6861 144.09 16.2348C145.229 14.9725 148.035 18.0532 148.577 20.1658C146.504 17.9093 145.523 18.4587 144.548 17.713V17.7196Z" fill="#FFC5E1"/>
<path d="M155.694 17.7196C156.08 17.4122 156.564 16.6861 156.151 16.2348C155.013 14.9725 152.207 18.0532 151.665 20.1658C153.738 17.9093 154.719 18.4587 155.694 17.713V17.7196Z" fill="#FFC5E1"/>
<path d="M142.739 25.9478C146.193 25.4834 145.637 21.4674 143.491 22.056C142.366 22.3635 142.517 24.0379 143.524 24.1164C139.874 24.9143 139.541 20.6236 142.399 20.12C145.074 19.6491 147.475 24.5611 148.907 29.2051C149.025 24.3061 146.31 17.7326 141.974 18.511C137.134 19.3743 137.794 26.6084 142.713 25.9412H142.739V25.9478Z" fill="#FFC5E1"/>
<path d="M150.129 16.8758L149.907 16.7646C146.08 14.6192 145.76 12.5851 145.76 11.9572C145.76 9.85106 147.539 9.35396 148.383 9.47824C149.148 9.58943 149.619 9.96225 149.9 10.3024C149.946 10.3482 150.037 10.4397 150.122 10.4332C150.214 10.4332 150.299 10.3482 150.332 10.2958C150.613 9.95571 151.084 9.58289 151.849 9.47169C152.68 9.35396 154.472 9.85106 154.479 11.9506C154.479 12.572 154.158 14.6127 150.338 16.7515L150.129 16.8693V16.8758Z" fill="#FFC5E1"/>
<path d="M149.422 21.6701C149.808 22.056 150.436 22.056 150.828 21.6701C151.22 21.2842 151.214 20.6563 150.828 20.2638C150.442 19.8714 149.814 19.8779 149.422 20.2638C149.029 20.6497 149.036 21.2776 149.422 21.6701Z" fill="#FFC5E1"/>
<path d="M163.472 15.1491C163.857 15.535 164.485 15.535 164.878 15.1491C165.27 14.7632 165.264 14.1353 164.878 13.7428C164.492 13.3504 163.864 13.3569 163.472 13.7428C163.079 14.1287 163.086 14.7566 163.472 15.1491Z" fill="#FFC5E1"/>
<path d="M132.861 24.0705C132.875 24.476 132.829 24.6722 132.574 24.7965C132.364 24.8946 131.952 24.8554 131.893 24.4368C130.814 16.6533 125.883 19.42 127.217 22.0952C127.511 22.6904 128.316 22.9455 128.911 22.8801C128.715 22.6969 128.577 22.4353 128.577 22.1475C128.577 21.5981 129.016 21.1599 129.565 21.1599C130.114 21.1599 130.54 21.6046 130.553 22.1475C130.592 24.2863 126.628 24.4041 126.04 21.5981C125.66 19.7798 127.688 17.4447 130.258 19.0276C124.895 11.6366 117.327 17.5232 120.676 20.3815C121.101 20.7478 121.768 20.7478 122.239 20.617C121.873 20.4011 121.631 20.0087 121.631 19.5574C121.631 18.8772 122.18 18.3277 122.861 18.3277C123.541 18.3277 124.045 18.8837 124.09 19.5574C124.202 21.1664 121.827 22.1083 120.205 21.0748C118.747 20.1461 118.472 17.7521 120.146 16.3197C117.288 17.1896 112.029 24.5741 116.065 26.5429C117.288 27.1381 118.577 26.569 119.165 25.6795C118.217 26.0785 116.719 25.3983 116.719 23.992C116.719 23.0043 117.504 22.1802 118.472 22.1802C122.337 22.1802 120.604 29.5974 115.424 27.7529C114.247 27.3343 113.501 25.7515 113.422 24.6003C107.32 33.8293 96.0176 33.2144 96.0176 25.9346C96.0176 23.2464 98.3788 20.8459 101.008 20.8459C102.506 20.8459 104.743 21.4934 104.743 23.8219C104.743 24.8815 104.05 25.915 102.532 25.915C101.165 25.915 99.9289 24.0509 101.1 22.5727C99.2421 22.383 97.6397 24.2667 97.6201 25.915C97.5612 32.096 107.732 31.1149 113.331 22.6773C110.878 25.3198 108.151 24.391 106.829 22.8866C103.533 19.1126 108.667 14.1678 111.925 16.9738C113.318 18.2689 112.225 20.1984 110.767 20.1788C109.714 20.1722 108.314 19.0734 109.23 17.3532C107.562 17.5821 106.313 20.061 107.856 21.8532C108.962 23.1482 111.8 23.0109 112.991 21.2253C119.067 12.1075 129.997 11.7805 132.469 21.8466C132.528 22.0756 132.816 23.3118 132.835 24.0705H132.861Z" fill="#FFC5E1"/>
<path d="M137.029 13.7494C136.643 13.3635 136.015 13.3635 135.622 13.7494C135.23 14.1353 135.237 14.7632 135.622 15.1556C136.008 15.5481 136.636 15.5415 137.029 15.1556C137.421 14.7697 137.415 14.1418 137.029 13.7494Z" fill="#FFC5E1"/>
<path d="M76.2375 36.7157C76.1763 36.7373 76.1055 36.7074 76.0757 36.7149C72.9337 35.9864 72.1402 34.5836 71.9711 34.1092C71.3918 32.5357 72.4985 31.7114 73.1162 31.5955C73.6891 31.4906 74.1119 31.6483 74.3989 31.8461C74.4429 31.87 74.5242 31.9163 74.5869 31.888C74.648 31.8664 74.6809 31.7822 74.7048 31.7382C74.8318 31.4212 75.0469 31.0253 75.5639 30.7601C76.1183 30.4539 77.5027 30.4383 78.0059 32.0371C78.1653 32.5235 78.3978 34.1042 76.3651 36.6173C76.3457 36.6412 76.2987 36.6941 76.2375 36.7157Z" fill="#FFC5E1"/>
<path d="M35.9972 53.9567C35.7289 53.5798 35.2292 53.4825 34.8919 53.7315C34.5531 53.9871 34.4961 54.4958 34.7659 54.8659C35.0357 55.236 35.5339 55.34 35.8712 55.0911C36.2085 54.8422 36.2655 54.3335 35.9972 53.9567Z" fill="#FFC5E1"/>
<path d="M63.4869 38.3196C63.2992 37.8973 62.8317 37.6875 62.4407 37.861C62.0513 38.0278 61.8936 38.5141 62.0813 38.9364C62.2705 39.3519 62.7395 39.5551 63.1208 39.3935C63.5035 39.2252 63.6679 38.7404 63.4802 38.3181L63.4869 38.3196Z" fill="#FFC5E1"/>
<path d="M43.9377 48.9063C44.7051 48.9716 45.4906 48.9564 46.2761 48.8145C47.072 48.6889 47.8748 48.438 48.6866 48.0201C50.3071 47.1976 51.9647 45.7352 53.7198 43.2659C50.6937 43.3453 48.5078 44.0488 46.9609 45.078C46.1901 45.5966 45.5713 46.1915 45.0757 46.8349C44.5852 47.4865 44.2178 48.1866 43.9377 48.9063Z" fill="#FFC5E1"/>
<path d="M21.0805 65.9139C22.2419 65.8557 23.3871 65.5543 24.4154 64.7337C25.4281 63.8885 26.4135 62.6286 27.2427 60.5518C22.7766 61.3389 21.4131 63.663 21.079 65.9206L21.0805 65.9139Z" fill="#FFC5E1"/>
<path d="M87.3923 30.5712C87.5039 31.0188 87.9267 31.3032 88.331 31.1961C88.7339 31.0956 88.9825 30.6438 88.8709 30.1962C88.766 29.75 88.3366 29.4641 87.9322 29.5713C87.5212 29.6769 87.2807 30.1236 87.3923 30.5712Z" fill="#FFC5E1"/>
<path d="M224.378 36.7123C224.439 36.7339 224.51 36.704 224.54 36.7114C227.682 35.983 228.475 34.5802 228.644 34.1057C229.223 32.5323 228.117 31.708 227.499 31.592C226.926 31.4872 226.503 31.6449 226.216 31.8427C226.172 31.8666 226.091 31.9129 226.028 31.8846C225.967 31.863 225.934 31.7787 225.91 31.7347C225.783 31.4178 225.568 31.0219 225.051 30.7567C224.497 30.4504 223.113 30.4349 222.609 32.0337C222.45 32.5201 222.217 34.1008 224.25 36.6139C224.27 36.6378 224.317 36.6907 224.378 36.7123Z" fill="#FFC5E1"/>
<path d="M264.618 53.9532C264.886 53.5764 265.386 53.4791 265.723 53.728C266.062 53.9837 266.119 54.4923 265.849 54.8625C265.58 55.2326 265.081 55.3366 264.744 55.0877C264.407 54.8388 264.35 54.3301 264.618 53.9532Z" fill="#FFC5E1"/>
<path d="M237.128 38.3162C237.316 37.8939 237.784 37.684 238.175 37.8576C238.564 38.0244 238.722 38.5107 238.534 38.9329C238.345 39.3485 237.876 39.5517 237.494 39.3901C237.112 39.2217 236.947 38.737 237.135 38.3147L237.128 38.3162Z" fill="#FFC5E1"/>
<path d="M256.678 48.9028C255.911 48.9682 255.125 48.953 254.34 48.811C253.544 48.6855 252.741 48.4346 251.929 48.0167C250.309 47.1942 248.651 45.7318 246.896 43.2625C249.922 43.3419 252.108 44.0454 253.655 45.0745C254.426 45.5932 255.044 46.1881 255.54 46.8315C256.031 47.4831 256.398 48.1832 256.678 48.9028Z" fill="#FFC5E1"/>
<path d="M279.535 65.9103C278.373 65.8521 277.228 65.5507 276.2 64.7301C275.187 63.8849 274.202 62.6249 273.373 60.5481C277.839 61.3353 279.202 63.6594 279.536 65.917L279.535 65.9103Z" fill="#FFC5E1"/>
<path d="M213.223 30.5677C213.111 31.0154 212.689 31.2998 212.284 31.1926C211.881 31.0922 211.633 30.6403 211.744 30.1927C211.849 29.7466 212.279 29.4607 212.683 29.5678C213.094 29.6735 213.335 30.1201 213.223 30.5677Z" fill="#FFC5E1"/>
</g>
</svg>
