<?xml version="1.0" encoding="UTF-8"?>
<svg version="1.1" xmlns="http://www.w3.org/2000/svg" width="1080" height="1080">
<path d="M0 0 C16.83 0 33.66 0 51 0 C58.25669094 8.86928892 63.88568458 16.2009175 68.44873047 26.4362793 C73.55958447 37.8232189 80.10921702 48.22519145 86.73522949 58.77958679 C90.71814532 65.12832202 94.6141615 71.52903037 98.5 77.9375 C98.85186371 78.51716522 99.20372742 79.09683044 99.56625366 79.69406128 C108.11963541 93.78942199 116.5047823 107.98328685 124.87841797 122.18603516 C126.08303675 124.2291788 127.2879423 126.2721534 128.49316406 128.31494141 C129.58086265 130.15901368 130.66754049 132.00368861 131.75292969 133.84912109 C134.75932719 138.94886941 137.83361882 143.99793475 141 149 C145.09278194 146.06849183 147.36444045 143.22058701 149.875 138.875 C150.24810303 138.23594727 150.62120605 137.59689453 151.00561523 136.93847656 C152.34798564 134.63180085 153.67409731 132.31617926 155 130 C156.11792285 128.05956921 157.23645056 126.11948682 158.35546875 124.1796875 C160.24046608 120.91094112 162.12474782 117.6417973 164.00634766 114.37109375 C170.17455801 103.66068563 176.46590414 93.02515883 182.78657532 82.40411377 C185.44460186 77.93710675 188.0944751 73.46531424 190.7421875 68.9921875 C200.05571905 53.2629351 209.42757459 37.57363192 219 22 C219.6069873 21.01209473 220.21397461 20.02418945 220.83935547 19.00634766 C222.66116634 16.04430421 224.48595399 13.08412553 226.3125 10.125 C226.87050293 9.21983643 227.42850586 8.31467285 228.00341797 7.38208008 C228.51404785 6.55732178 229.02467773 5.73256348 229.55078125 4.8828125 C230.00106689 4.15465332 230.45135254 3.42649414 230.9152832 2.67626953 C232 1 232 1 233 0 C234.62674778 -0.09340434 236.25754051 -0.11745171 237.88696289 -0.11352539 C238.92796646 -0.11344986 239.96897003 -0.11337433 241.04151917 -0.11329651 C242.1737944 -0.10813522 243.30606964 -0.10297394 244.47265625 -0.09765625 C245.62543564 -0.0962413 246.77821503 -0.09482635 247.96592712 -0.09336853 C251.66481064 -0.08775005 255.36363464 -0.07519442 259.0625 -0.0625 C261.56315017 -0.05748738 264.06380129 -0.05292406 266.56445312 -0.04882812 C272.70965588 -0.03777462 278.85482369 -0.02101852 285 0 C285.02278971 32.08628763 285.04049783 64.17257296 285.05106533 96.25886678 C285.05231611 100.0429392 285.05361042 103.82701159 285.05493164 107.61108398 C285.05532511 108.7411429 285.05532511 108.7411429 285.05572652 109.89403129 C285.06008336 122.10862669 285.06797098 134.32321741 285.0771528 146.53781002 C285.08648895 159.06174199 285.09205553 171.5856715 285.09408849 184.1096068 C285.0954638 191.84378852 285.09981481 199.57795699 285.10791647 207.31213463 C285.11380414 213.23266723 285.11445906 219.15319295 285.11310768 225.07372856 C285.11338421 227.50988344 285.11539193 229.94603879 285.11920547 232.3821907 C285.12413583 235.69242972 285.12300073 239.00261077 285.12025452 242.31285095 C285.12462378 243.77926015 285.12462378 243.77926015 285.12908131 245.27529377 C285.12709026 246.1551005 285.12509921 247.03490723 285.12304783 247.94137478 C285.12342755 248.70651124 285.12380727 249.47164771 285.1241985 250.25997013 C285 252 285 252 284 253 C282.2507128 253.09365006 280.49763746 253.11744438 278.74584961 253.11352539 C277.62476303 253.11344986 276.50367645 253.11337433 275.34861755 253.11329651 C273.51896202 253.10555458 273.51896202 253.10555458 271.65234375 253.09765625 C270.41078018 253.0962413 269.16921661 253.09482635 267.89002991 253.09336853 C264.58394509 253.08870591 261.27792854 253.07971497 257.97186279 253.06866455 C254.6003885 253.05844827 251.22890717 253.05387045 247.85742188 253.04882812 C241.23826164 253.03777395 234.61913651 253.02062142 228 253 C227.23755097 244.28122775 226.81874521 235.615927 226.70288086 226.8659668 C226.68322769 225.62536499 226.66357452 224.38476318 226.64332581 223.10656738 C226.59092161 219.75003578 226.54201264 216.39348948 226.49474788 213.03688407 C226.44425904 209.51216005 226.38917644 205.98750767 226.33460999 202.46284485 C226.23227779 195.80866288 226.13399416 189.15442771 226.03721577 182.5001629 C225.92671096 174.91591841 225.81161557 167.33174567 225.69616115 159.74757516 C225.45904975 144.16512367 225.22761687 128.58259325 225 113 C224.51153091 113.83365585 224.02306183 114.66731171 223.51979065 115.52622986 C221.68499835 118.6575136 219.84998438 121.78866738 218.01490784 124.91978455 C217.22491124 126.26779262 216.43497253 127.61583463 215.64509583 128.96391296 C207.69204198 142.53717939 207.69204198 142.53717939 203.9604187 148.83427429 C199.37327322 156.58427705 194.86139868 164.37883989 190.375 172.1875 C190.03759796 172.77471832 189.70019592 173.36193665 189.35256958 173.96694946 C185.3306791 180.98315982 181.40817725 188.04340165 177.625 195.19140625 C177.08801987 196.20553841 177.08801987 196.20553841 176.54019165 197.24015808 C174.81554783 200.50423673 173.1023546 203.77378153 171.40380859 207.05151367 C162.08554389 224.93220465 162.08554389 224.93220465 154.15527344 228.35107422 C150.31120697 229.50847439 146.61780229 229.63853422 142.625 229.5625 C141.78864014 229.54791748 140.95228027 229.53333496 140.09057617 229.51831055 C133.50803042 229.26525891 128.01518214 228.63087699 123 224 C119.76908638 219.97784223 117.3980258 215.54680164 115 211 C113.02524212 207.31013101 111.04381017 203.62385399 109.0625 199.9375 C108.51674316 198.9175293 107.97098633 197.89755859 107.40869141 196.84667969 C101.06681428 185.09126831 94.08196241 173.74386388 87.078125 162.37597656 C83.89057025 157.197698 80.72534826 152.00589423 77.5625 146.8125 C76.9950708 145.88203857 76.4276416 144.95157715 75.84301758 143.99291992 C71.83680789 137.41133162 67.89779991 130.79275797 64.01782227 124.13598633 C62.40647876 121.37293532 60.77497609 118.66246413 59 116 C58.99061433 116.62100397 58.98122866 117.24200794 58.97155857 117.88183022 C58.74203953 133.05004363 58.50815241 148.21818302 58.26950932 163.38625526 C58.15420288 170.72166539 58.04033032 178.05709236 57.92993164 185.39257812 C57.83361187 191.79233579 57.7345016 198.19204338 57.63215441 204.59170759 C57.5781465 207.97467207 57.5254585 211.35764459 57.4761219 214.74068069 C57.42010123 218.53373063 57.35914919 222.3266731 57.29711914 226.11962891 C57.27445984 227.76933937 57.27445984 227.76933937 57.25134277 229.45237732 C57.11483119 237.35815425 56.56559168 245.08171645 56 253 C37.52 253 19.04 253 0 253 C0 169.51 0 86.02 0 0 Z " fill="#C61E85" transform="translate(0,362)"/>
<path d="M0 0 C0.76046631 0.00467285 1.52093262 0.0093457 2.30444336 0.01416016 C3.48671509 0.01923584 3.48671509 0.01923584 4.69287109 0.02441406 C11.37927695 0.08008556 18.06017709 0.26395947 24.74194336 0.51416016 C26.16724365 0.56032471 26.16724365 0.56032471 27.62133789 0.60742188 C39.90556814 1.12726375 48.81939434 3.60896408 57.36694336 12.88916016 C59.67277527 15.67079865 61.52822511 18.49783648 63.30444336 21.63916016 C67.39272443 28.74731818 72.81265029 34.83084824 78.02758789 41.12402344 C80.50766214 44.14952342 82.90593449 47.23640743 85.30444336 50.32666016 C89.33528355 55.49996232 93.50292035 60.53526487 97.76147461 65.5222168 C101.16535355 69.51236009 104.46335991 73.57346636 107.72241211 77.68212891 C111.32648987 82.20700897 115.01021426 86.66709119 118.67944336 91.13916016 C120.93694859 93.89746377 123.193587 96.65646847 125.44897461 99.41650391 C126.87929652 101.16244851 128.31382621 102.90495941 129.75366211 104.64306641 C135.83822854 112.00977808 141.69425105 119.54537368 147.54272461 127.10009766 C149.89406671 130.13575945 152.26832902 133.15056905 154.67944336 136.13916016 C155.70884313 129.27767804 155.87961821 122.52027669 155.96069336 115.58862305 C155.97874023 114.35035767 155.99678711 113.11209229 156.01538086 111.83630371 C156.05386099 109.15887632 156.09077134 106.48148249 156.125 103.80400276 C156.17923149 99.57299011 156.24034276 95.34209357 156.30249023 91.1111908 C156.45561674 80.61218227 156.59892866 70.11304195 156.74194336 59.6138916 C156.85352164 51.43422764 156.96743645 43.25460891 157.08795929 35.07507128 C157.14971611 30.8655137 157.20675107 26.6559262 157.26023865 22.4462558 C157.30236361 19.22542654 157.3507834 16.0046907 157.39819336 12.78393555 C157.41172852 11.61255539 157.42526367 10.44117523 157.43920898 9.23429871 C157.4643457 7.64668228 157.4643457 7.64668228 157.48999023 6.0269928 C157.50251831 5.10176347 157.51504639 4.17653414 157.5279541 3.22326756 C157.67944336 1.13916016 157.67944336 1.13916016 158.67944336 0.13916016 C160.45390345 0.04022238 162.23230587 0.01116923 164.00952148 0.00976562 C165.14740112 0.00661346 166.28528076 0.0034613 167.4576416 0.00021362 C168.69614868 0.00223785 169.93465576 0.00426208 171.21069336 0.00634766 C172.4720813 0.00539093 173.73346924 0.0044342 175.03308105 0.00344849 C177.70641474 0.00276641 180.37965773 0.00412486 183.05297852 0.00878906 C186.48651027 0.01448635 189.91996386 0.01120715 193.35349274 0.0052166 C196.61839579 0.00074254 199.88328929 0.00387132 203.14819336 0.00634766 C204.38670044 0.00432343 205.62520752 0.00229919 206.90124512 0.00021362 C208.03912476 0.00336578 209.17700439 0.00651794 210.34936523 0.00976562 C211.35672729 0.01056122 212.36408936 0.01135681 213.40197754 0.01217651 C215.67944336 0.13916016 215.67944336 0.13916016 216.67944336 1.13916016 C216.77748573 4.22367844 216.80935063 7.28582081 216.79969788 10.3707428 C216.80097951 11.84210328 216.80097951 11.84210328 216.80228704 13.34318823 C216.80394482 16.65678877 216.79841562 19.9703396 216.79296875 23.28393555 C216.79268692 25.64858499 216.79284454 28.01323452 216.79341125 30.37788391 C216.79366941 36.14964377 216.7893181 41.92138712 216.78297359 47.6931432 C216.77583964 54.40665131 216.7743297 61.12015703 216.77318542 67.8336684 C216.77099459 79.80700314 216.76433365 91.78033107 216.75488281 103.75366211 C216.74570951 115.38745082 216.73862828 127.0212377 216.734375 138.6550293 C216.73411228 139.37164551 216.73384955 140.08826173 216.73357887 140.82659359 C216.73227387 144.42150004 216.73101015 148.01640651 216.72976696 151.61131299 C216.71939337 181.45393347 216.70170007 211.29654602 216.67944336 241.13916016 C211.04184217 241.1890131 205.40437249 241.22509199 199.76660156 241.24902344 C197.85316733 241.2590119 195.93974809 241.27260732 194.02636719 241.29003906 C166.06718972 241.53817585 166.06718972 241.53817585 158.62475586 235.34619141 C155.63608603 231.95543146 153.52439086 228.08207994 151.31567383 224.1628418 C147.37536294 217.29360545 142.36405309 211.62007033 137.09887695 205.74414062 C134.99656909 203.36702128 132.99324993 200.9140007 130.99194336 198.45166016 C130.27006836 197.56349609 129.54819336 196.67533203 128.80444336 195.76025391 C128.10319336 194.89529297 127.40194336 194.03033203 126.67944336 193.13916016 C123.68407538 189.46869978 120.68304622 185.8028836 117.67944336 182.13916016 C117.15688965 181.50171875 116.63433594 180.86427734 116.09594727 180.20751953 C110.04583347 172.83194522 103.98644585 165.46728639 97.80444336 158.20166016 C94.1045573 153.85203479 90.49416219 149.44389677 86.94897461 144.96728516 C84.609012 142.05139372 82.22879221 139.17229385 79.84179688 136.29492188 C74.09703361 129.36605155 68.45358283 122.37053296 62.92944336 115.26416016 C62.33309082 114.49716797 61.73673828 113.73017578 61.12231445 112.93994141 C58.88457726 110.04749508 56.70918012 107.18376529 54.67944336 104.13916016 C54.67005769 104.78446623 54.66067202 105.4297723 54.65100193 106.0946331 C54.42186078 121.82892063 54.18800134 137.56313 53.94895267 153.29726982 C53.83346112 160.90631829 53.7195403 168.51538411 53.609375 176.12451172 C53.51330077 182.76008799 53.41422051 189.39561156 53.31159776 196.0310899 C53.25741199 199.54135823 53.20468596 203.05163423 53.15556526 206.56197739 C53.10054393 210.48996196 53.0388085 214.41782609 52.9765625 218.34570312 C52.9614563 219.49729416 52.9463501 220.64888519 52.93078613 221.83537292 C52.91258316 222.91771713 52.89438019 224.00006134 52.87562561 225.11520386 C52.86179872 226.0425276 52.84797182 226.96985134 52.83372593 227.9252758 C52.62172063 232.34159141 52.11938924 236.73970139 51.67944336 241.13916016 C32.53944336 241.13916016 13.39944336 241.13916016 -6.32055664 241.13916016 C-6.34258316 210.58159969 -6.36105458 180.0240465 -6.37162197 149.46648062 C-6.37287275 145.8626635 -6.37416706 142.25884639 -6.37548828 138.6550293 C-6.37575059 137.93754406 -6.3760129 137.22005883 -6.37628316 136.48083162 C-6.38063995 124.84822347 -6.38852755 113.21562025 -6.39770944 101.58301503 C-6.40704573 89.65572963 -6.4126122 77.7284468 -6.41464514 65.80115789 C-6.4158967 59.09807117 -6.41891844 52.39499473 -6.4262867 45.6919117 C-6.43304271 39.39080837 -6.43517446 33.08972088 -6.43366432 26.78861427 C-6.43394084 24.46856348 -6.43594843 22.14851219 -6.43976212 19.82846451 C-6.44469282 16.67587073 -6.44355724 13.52333781 -6.44081116 10.3707428 C-6.443724 9.43982805 -6.44663684 8.5089133 -6.44963795 7.54978901 C-6.43174646 0.01949696 -6.43174646 0.01949696 0 0 Z " fill="#C62086" transform="translate(528.320556640625,89.86083984375)"/>
<path d="M0 0 C19.47 0 38.94 0 59 0 C59.64202382 14.76654781 60.21612288 29.50492682 60.53515625 44.27734375 C60.57835828 46.19503748 60.62177412 48.1127264 60.66539001 50.03041077 C60.77763408 54.98995505 60.88704615 59.94955756 60.99578857 64.90917969 C61.1080508 70.00524812 61.22310158 75.1012536 61.33789062 80.19726562 C61.56126329 90.13145201 61.78163257 100.06570242 62 110 C66.00517282 106.01974213 70.00689955 102.03606133 74.00561523 98.04931641 C75.36342127 96.69650645 76.72212751 95.34459934 78.08178711 93.99365234 C88.36586288 83.80096894 88.36586288 83.80096894 98 73 C105.71055946 64.36554214 113.76829204 56.13898398 122.06152344 48.06323242 C126.07706067 44.10883052 129.80150033 40.09505316 133.3125 35.68359375 C138.51403068 29.19741941 144.36744565 23.48009379 150.3125 17.6875 C152.43957953 15.61406847 154.55957154 13.53373662 156.67578125 11.44921875 C157.60302002 10.54518311 158.53025879 9.64114746 159.4855957 8.7097168 C162.10706127 6.10288442 162.10706127 6.10288442 163.72715759 2.87321472 C166 0 166 0 169.13848877 -0.7215271 C170.3731488 -0.70820343 171.60780884 -0.69487976 172.87988281 -0.68115234 C173.90488388 -0.68246658 173.90488388 -0.68246658 174.95059204 -0.68380737 C177.20261166 -0.67963679 179.45162802 -0.63302119 181.703125 -0.5859375 C183.2668088 -0.5747432 184.83051369 -0.56620411 186.39422607 -0.56021118 C190.50474415 -0.53733048 194.61398479 -0.47841621 198.72399902 -0.4119873 C202.91999022 -0.35054695 207.11618839 -0.32319258 211.3125 -0.29296875 C219.54225212 -0.22867009 227.77096704 -0.12630236 236 0 C233.30381797 4.1158044 230.54252307 7.77165239 227.1875 11.375 C224.18044339 14.62897035 221.20130814 17.89061678 218.3125 21.25 C215.58830544 24.3888846 212.71004409 27.31151572 209.74609375 30.22265625 C207.93522357 32.06593574 206.24678646 33.97822799 204.5625 35.9375 C202.14382221 38.74576347 199.64100317 41.39970593 197 44 C194.37959391 46.58009215 191.89676588 49.21103607 189.5 52 C186.55421205 55.42782597 183.43824653 58.61134817 180.1875 61.75 C177.63512138 64.37530373 175.25675655 67.12656674 172.85595703 69.89013672 C169.95771559 73.18487527 166.94985155 76.37235842 163.9375 79.5625 C162.62367321 80.96091429 161.30987175 82.35935238 159.99609375 83.7578125 C157.3890155 86.52811099 154.77610799 89.29276983 152.16015625 92.0546875 C146.10616098 98.46648768 140.16799731 104.83086087 135 112 C136.50390126 115.36256898 138.45252902 117.93029442 140.8125 120.75 C141.61558594 121.71808594 142.41867187 122.68617188 143.24609375 123.68359375 C143.90714111 124.47805908 143.90714111 124.47805908 144.58154297 125.28857422 C152.76385179 135.16086076 160.76548504 145.17687748 168.65722656 155.28222656 C170.93233933 158.19271628 173.2166837 161.09594496 175.5 164 C176.41670978 165.16663279 177.33337648 166.33329944 178.25 167.5 C178.70375 168.0775 179.1575 168.655 179.625 169.25 C188.33333333 180.33333333 197.04166667 191.41666667 205.75 202.5 C206.20342773 203.0770166 206.65685547 203.6540332 207.12402344 204.24853516 C208.04423265 205.41985895 208.96415278 206.59140992 209.88378906 207.76318359 C212.11898696 210.61049399 214.35840774 213.45419772 216.609375 216.2890625 C224.07008474 225.70363568 231.27686148 235.30242972 238.45703125 244.93212891 C239.51628458 246.35172949 240.59845372 247.75443002 241.69921875 249.14208984 C243 251 243 251 243 253 C228.00837581 254.67237242 213.04227756 255.28458179 197.9666748 255.40942383 C195.99822994 255.4280529 194.02984674 255.45531429 192.06164551 255.49145508 C189.24896742 255.53970977 186.43804972 255.55355929 183.625 255.55859375 C182.78821716 255.5780455 181.95143433 255.59749725 181.08929443 255.61753845 C172.14787702 255.55053689 165.34929309 251.0021375 159 245 C156.69140625 242.08984375 156.69140625 242.08984375 154.5625 238.9375 C154.17473389 238.36805664 153.78696777 237.79861328 153.38745117 237.21191406 C150.99651043 233.65335044 148.86862282 230.01436628 146.8125 226.25 C142.36172053 218.40914084 136.40888149 211.7521887 130.60058594 204.90039062 C128.58637977 202.50890484 126.63018595 200.07481281 124.6875 197.625 C122.08657291 194.35463598 119.46111996 191.10689005 116.8125 187.875 C116.07257813 186.97136719 115.33265625 186.06773437 114.5703125 185.13671875 C113.18056018 183.43992813 111.78972679 181.74404586 110.39746094 180.04931641 C108.65818743 177.9308437 106.92265229 175.80934892 105.1875 173.6875 C104.63618408 173.0176709 104.08486816 172.3478418 103.5168457 171.65771484 C100.44424109 167.8940205 97.62035905 164.0923283 95 160 C90.29542189 161.27871527 87.51675209 162.95918671 84 166.3125 C81.34031378 168.81339898 78.75627954 171.19010196 75.875 173.4375 C65.54446499 182.64515077 62.10359604 190.64083377 61.21655273 204.09912109 C60.86811641 210.3756888 60.67553355 216.65404899 60.5 222.9375 C60.42968542 225.44668885 60.35676852 227.95580613 60.28125 230.46484375 C60.25095703 231.554021 60.22066406 232.64319824 60.18945312 233.76538086 C59.90234575 240.18274876 59.42730397 246.59044052 59 253 C39.53 253 20.06 253 0 253 C0 169.51 0 86.02 0 0 Z " fill="#C51D84" transform="translate(618,362)"/>
<path d="M0 0 C63.69 0 127.38 0 193 0 C193 15.84 193 31.68 193 48 C149.44 48 105.88 48 61 48 C61 65.16 61 82.32 61 100 C99.61 100 138.22 100 178 100 C178 115.84 178 131.68 178 148 C139.39 148 100.78 148 61 148 C61 166.48 61 184.96 61 204 C105.88 204 150.76 204 197 204 C197 220.17 197 236.34 197 253 C131.99 253 66.98 253 0 253 C0 169.51 0 86.02 0 0 Z " fill="#C61E85" transform="translate(883,362)"/>
<path d="M0 0 C21.12 0 42.24 0 64 0 C67.88794551 7.77589101 71.63722753 15.49204258 75.125 23.4375 C75.89808877 25.18659617 76.67119431 26.93568496 77.44465637 28.68461609 C78.31565896 30.65493865 79.18547366 32.62578278 80.05517578 34.59667969 C83.87863879 43.25740459 87.7202576 51.91009406 91.5625 60.5625 C91.98719574 61.51905487 92.41189148 62.47560974 92.84945679 63.46115112 C100.33297964 80.31031315 107.90966883 97.11612636 115.52203369 113.90739441 C115.90405945 114.75006363 116.28608521 115.59273285 116.6796875 116.4609375 C117.05478455 117.28825882 117.42988159 118.11558014 117.81634521 118.9679718 C121.59748616 127.31141856 125.34531145 135.66953741 129.08642578 144.03100586 C132.50007364 151.65889476 135.92617844 159.28103851 139.36001587 166.89985657 C142.43294096 173.71828684 145.50104658 180.53887264 148.56600952 187.36088562 C150.45870791 191.57330374 152.35334182 195.78482426 154.25292969 199.99414062 C175 245.98231588 175 245.98231588 175 253 C166.96804958 253.06948318 158.93622455 253.12280239 150.90404797 253.15543652 C147.17444945 253.17109859 143.44505642 253.19234629 139.71557617 253.22631836 C136.11700226 253.25889319 132.51862611 253.27684894 128.91991615 253.28463173 C127.54635822 253.29017868 126.17281122 253.30101052 124.79933739 253.31719017 C122.87699293 253.33893676 120.95444985 253.34022517 119.03198242 253.34057617 C117.93722092 253.34723801 116.84245941 253.35389984 115.71452332 253.36076355 C113 253 113 253 111.19946289 251.6073761 C109.75633691 249.67347199 108.66553244 247.72020194 107.58203125 245.5625 C107.13585449 244.6765918 106.68967773 243.79068359 106.22998047 242.87792969 C105.76221191 241.92821289 105.29444336 240.97849609 104.8125 240 C104.3292627 239.02192383 103.84602539 238.04384766 103.34814453 237.03613281 C100.23163456 230.6629987 97.20643609 224.25509715 94.375 217.75 C94.0447583 217.01394531 93.7145166 216.27789063 93.37426758 215.51953125 C90.89008251 209.64407831 90.6816538 205.81653798 90 199 C51.72 199 13.44 199 -26 199 C-26.66 201.97 -27.32 204.94 -28 208 C-31.29763824 218.41484308 -35.84113358 228.39447836 -40.25 238.375 C-40.78157715 239.58269043 -41.3131543 240.79038086 -41.86083984 242.03466797 C-42.36566895 243.16533691 -42.87049805 244.29600586 -43.390625 245.4609375 C-43.84469727 246.47978027 -44.29876953 247.49862305 -44.76660156 248.54833984 C-46 251 -46 251 -48 253 C-50.5942688 253.24050903 -50.5942688 253.24050903 -53.91845703 253.22705078 C-55.15959259 253.22689972 -56.40072815 253.22674866 -57.67947388 253.22659302 C-59.0389217 253.216379 -60.3983679 253.205947 -61.7578125 253.1953125 C-63.14500729 253.19158284 -64.53220471 253.18873565 -65.91940308 253.18673706 C-69.57240051 253.17909684 -73.22523917 253.15944516 -76.87817383 253.1373291 C-80.60495862 253.11687896 -84.33176904 253.10773713 -88.05859375 253.09765625 C-95.37246825 253.07619951 -102.68621189 253.04205903 -110 253 C-109.30169875 248.39118166 -108.16919145 244.68086631 -106.25390625 240.41796875 C-105.97164185 239.78394135 -105.68937744 239.14991394 -105.39855957 238.49667358 C-104.45949154 236.39074347 -103.51092433 234.28923095 -102.5625 232.1875 C-101.54125018 229.903921 -100.52241056 227.61927512 -99.50352478 225.3346405 C-98.78517666 223.72457543 -98.06597133 222.11489257 -97.34596252 220.50556946 C-94.72258886 214.63858379 -92.1333215 208.75737425 -89.5625 202.8671875 C-82.18550711 185.970838 -74.73165825 169.1201203 -67.02078247 152.37329102 C-60.76104701 138.76891088 -54.7205567 125.07350182 -48.72192383 111.35229492 C-47.96698607 109.62547673 -47.21202197 107.89867004 -46.45703125 106.171875 C-46.08504105 105.32095779 -45.71305084 104.47004059 -45.32978821 103.59333801 C-41.81852815 95.56943854 -38.25990368 87.56695228 -34.69302368 79.56765747 C-27.90728758 64.34881804 -21.23205279 49.08619558 -14.63378906 33.78515625 C-11.66110531 26.89436745 -8.67254734 20.01043883 -5.6875 13.125 C-3.810625 8.79375 -1.93375 4.4625 0 0 Z M31 61 C20.70666446 84.61988132 10.44737401 108.23988356 1.25 132.3125 C0.77407913 133.55581589 0.77407913 133.55581589 0.2885437 134.82424927 C-0.59860239 137.14808424 -1.48074369 139.47371484 -2.359375 141.80078125 C-2.61567184 142.47772034 -2.87196869 143.15465942 -3.1360321 143.85211182 C-4.27320692 146.89528265 -5.21005891 149.84023563 -6 153 C19.41 153 44.82 153 71 153 C63.35492798 132.97592303 63.35492798 132.97592303 55.3125 113.125 C54.57030418 111.35008143 53.8281228 109.57515677 53.08638 107.80004883 C52.564625 106.55164184 52.04239682 105.3034325 51.5196991 104.05541992 C49.66613053 99.62182122 47.84490993 95.17573046 46.036026 90.72372437 C44.6775904 87.38328517 43.3104844 84.04642766 41.94247437 80.7098999 C41.27478724 79.07558609 40.61087796 77.43972356 39.95083618 75.80230713 C39.02806618 73.5149835 38.09180202 71.23363495 37.15234375 68.953125 C36.74056381 67.9178215 36.74056381 67.9178215 36.32046509 66.86160278 C35.62967536 65.20412727 34.82373376 63.59558085 34 62 C33.01 61.67 32.02 61.34 31 61 Z " fill="#C61E85" transform="translate(419,362)"/>
<path d="M0 0 C1.09123169 -0.0127597 2.18246338 -0.02551941 3.3067627 -0.03866577 C4.48492554 -0.04089142 5.66308838 -0.04311707 6.87695312 -0.04541016 C8.08637573 -0.05206696 9.29579834 -0.05872375 10.54187012 -0.06558228 C13.10065182 -0.0757139 15.65945998 -0.08039914 18.21826172 -0.08007812 C22.14269236 -0.08445536 26.06600251 -0.12078326 29.99023438 -0.15869141 C32.47330343 -0.16455847 34.95637785 -0.1685286 37.43945312 -0.17041016 C39.20669739 -0.19196671 39.20669739 -0.19196671 41.00964355 -0.21395874 C42.10087524 -0.20780548 43.19210693 -0.20165222 44.31640625 -0.1953125 C45.27776489 -0.19816254 46.23912354 -0.20101257 47.22961426 -0.20394897 C49.65820312 0.29052734 49.65820312 0.29052734 51.40058899 2.13789368 C53.02033889 4.91038809 54.35527196 7.73889007 55.66992188 10.66943359 C55.95505142 11.30090805 56.24018097 11.93238251 56.53395081 12.58299255 C57.47568951 14.67101557 58.4106235 16.7620148 59.34570312 18.85302734 C60.35053098 21.08550838 61.35706952 23.31721349 62.36361694 25.54891968 C63.06311847 27.1002701 63.76202261 28.65189001 64.46035767 30.20376587 C67.89949087 37.84285533 71.39380138 45.45625142 74.88928223 53.06967163 C82.61244226 69.90319041 90.11087587 86.82638365 97.49264526 103.81242371 C107.37088628 126.54046794 117.37508628 149.20640902 127.54119873 171.80718994 C128.69790299 174.37878856 129.85412146 176.95060519 131.01025391 179.52246094 C134.46863482 187.21511924 137.92717806 194.90770735 141.39256287 202.59721375 C142.08595422 204.13788691 142.77767858 205.6793115 143.46766663 207.22151184 C145.33548422 211.39002174 147.23953543 215.53764221 149.18945312 219.66845703 C149.60674683 220.56418427 150.02404053 221.4599115 150.45397949 222.38278198 C151.25544502 224.101823 152.06712193 225.81615407 152.89074707 227.52468872 C153.25293335 228.30705902 153.61511963 229.08942932 153.98828125 229.89550781 C154.31123169 230.57660614 154.63418213 231.25770447 154.96691895 231.95944214 C155.65820312 234.29052734 155.65820312 234.29052734 155.65820312 241.29052734 C135.85820312 241.29052734 116.05820312 241.29052734 95.65820312 241.29052734 C76.98715049 202.25105366 76.98715049 202.25105366 75.65820312 190.29052734 C21.20820312 190.78552734 21.20820312 190.78552734 -34.34179688 191.29052734 C-37.31179688 199.87052734 -40.28179687 208.45052734 -43.34179688 217.29052734 C-51.51421067 237.04914803 -51.51421067 237.04914803 -54.34179688 241.29052734 C-56.82217407 241.65129089 -56.82217407 241.65129089 -59.98486328 241.63110352 C-61.16593658 241.63087692 -62.34700989 241.63065033 -63.56387329 241.63041687 C-65.4842189 241.60719109 -65.4842189 241.60719109 -67.44335938 241.58349609 C-68.75009613 241.57925125 -70.05683289 241.57500641 -71.40316772 241.57063293 C-74.87871474 241.55917366 -78.35388615 241.52969784 -81.82928467 241.496521 C-85.37507038 241.46584303 -88.92091673 241.45213251 -92.46679688 241.43701172 C-99.42528459 241.40482869 -106.38352271 241.35361964 -113.34179688 241.29052734 C-112.87211838 239.71033131 -112.40126647 238.13048403 -111.92993164 236.55078125 C-111.53681541 235.2310582 -111.53681541 235.2310582 -111.13575745 233.88467407 C-105.23283881 214.59777543 -96.17335153 196.33621468 -87.84495544 178.01664734 C-84.00552995 169.56604983 -80.22858203 161.08840957 -76.46679688 152.60302734 C-75.81613756 151.13669353 -75.1654209 149.67038516 -74.51464844 148.20410156 C-73.1698839 145.17382648 -71.82556298 142.14335503 -70.48144531 139.11279297 C-66.94490529 131.14050219 -63.40097236 123.17149471 -59.85821533 115.20196533 C-57.73790859 110.43211821 -55.61799854 105.66209479 -53.49804688 100.89208984 C-52.63997585 98.96142494 -51.78190293 97.03076088 -50.92382812 95.10009766 C-50.4979541 94.1418811 -50.07208008 93.18366455 -49.63330078 92.19641113 C-45.75976563 83.48095703 -45.75976563 83.48095703 -44.47125244 80.58184814 C-43.6152094 78.65572082 -42.75921156 76.72957341 -41.90325928 74.80340576 C-39.8021277 70.07533259 -37.70024965 65.34759433 -35.59667969 60.62060547 C-31.98890816 52.51155141 -28.38555266 44.40077741 -24.81402588 36.27568054 C-23.33930221 32.9213234 -21.86074322 29.56866315 -20.38195801 26.21609497 C-19.69783768 24.66189097 -19.01573164 23.1067985 -18.33581543 21.55075073 C-17.40533433 19.42139401 -16.46804988 17.29515367 -15.52929688 15.16943359 C-15.00722656 13.97906494 -14.48515625 12.78869629 -13.94726562 11.56225586 C-10.57589464 4.69185706 -8.08481235 0.06411275 0 0 Z M19.65820312 59.29052734 C12.80838098 74.68061616 6.33466063 90.21995695 -0.09179688 105.79052734 C-0.50289703 106.78594543 -0.91399719 107.78136353 -1.33755493 108.8069458 C-3.6693178 114.45566298 -5.99327866 120.10749315 -8.30688477 125.76367188 C-8.97795454 127.40216495 -9.65085737 129.03990895 -10.32592773 130.67675781 C-11.19550969 132.7856256 -12.05868448 134.89699103 -12.91992188 137.00927734 C-13.63003418 138.74081055 -13.63003418 138.74081055 -14.35449219 140.50732422 C-15.50895916 143.26956763 -15.50895916 143.26956763 -15.34179688 146.29052734 C8.41820312 146.29052734 32.17820312 146.29052734 56.65820312 146.29052734 C52.51868105 134.46332142 48.41898437 122.78941323 43.65820312 111.22802734 C43.11231002 109.89212092 42.56649522 108.55618249 42.02075195 107.22021484 C35.4372035 91.15795795 28.55243137 75.22129877 21.65820312 59.29052734 C20.99820313 59.29052734 20.33820313 59.29052734 19.65820312 59.29052734 Z " fill="#C61E85" transform="translate(343.341796875,89.70947265625)"/>
<path d="M0 0 C6.18957168 5.71416783 6.18957168 5.71416783 7.08984375 9.45703125 C7.07050781 10.09640625 7.05117187 10.73578125 7.03125 11.39453125 C7.02931641 12.35359375 7.02931641 12.35359375 7.02734375 13.33203125 C5.73581869 19.47550182 0.84287946 23.24156014 -3.59375 27.26953125 C-4.26849365 27.88940918 -4.9432373 28.50928711 -5.63842773 29.14794922 C-7.55480935 30.90380472 -9.47902279 32.65059723 -11.40625 34.39453125 C-12.24929687 35.1628125 -13.09234375 35.93109375 -13.9609375 36.72265625 C-17.5945692 39.97454454 -21.26986381 42.80928988 -25.40625 45.39453125 C-31.80567742 42.18175748 -37.66417695 38.58416255 -43.40625 34.33203125 C-56.98835651 24.39035649 -70.88303467 20.81629404 -87.65625 20.95703125 C-88.93242187 20.96532959 -90.20859375 20.97362793 -91.5234375 20.98217773 C-108.86710758 21.29235921 -125.11656109 25.17451204 -137.625 38.109375 C-139.9693496 39.80080268 -141.58304925 39.6314094 -144.40625 39.39453125 C-144.64601563 40.21953125 -144.88578125 41.04453125 -145.1328125 41.89453125 C-146.62738371 46.0023098 -148.6461359 49.59385456 -150.78125 53.39453125 C-161.43679675 72.91695442 -163.6294978 96.77868769 -158.03125 118.34326172 C-152.27861519 137.22358892 -138.66506243 150.4468631 -121.59375 159.70703125 C-103.8035941 168.01363076 -79.99873203 168.37496018 -61.40771484 162.1484375 C-51.43681254 158.39262555 -41.53736302 153.76213814 -35.03125 145.08203125 C-31.8786414 141.44701918 -31.8786414 141.44701918 -28.03125 141.01953125 C-19.64885849 144.19905907 -13.45677555 149.94086606 -7.34375 156.33203125 C-2.23021452 161.61652072 2.98375129 166.63557633 8.59375 171.39453125 C2.67722319 187.89539748 -12.39810533 197.93484529 -27.40625 205.39453125 C-40.27795354 211.32378924 -53.27183097 216.60821817 -67.40625 218.39453125 C-68.61796875 218.57371094 -69.8296875 218.75289062 -71.078125 218.9375 C-106.33431953 223.2347819 -145.87769382 214.95753968 -174.22802734 192.98242188 C-192.86295954 178.05870469 -206.51787838 159.41010728 -215.28125 137.20703125 C-215.55517578 136.51996094 -215.82910156 135.83289063 -216.11132812 135.125 C-220.8638279 122.53028596 -221.9397529 110.47550537 -221.90722656 97.14086914 C-221.90625987 94.36041708 -221.94789172 91.58278656 -221.9921875 88.80273438 C-222.1795343 60.5213498 -211.86637965 34.4883107 -194.40625 12.39453125 C-193.7771875 11.58757812 -193.148125 10.780625 -192.5 9.94921875 C-171.49270792 -15.17873447 -137.55354487 -28.58937239 -105.71655273 -32.40478516 C-66.47069599 -35.81386201 -30.24950609 -25.1672638 0 0 Z " fill="#C62086" transform="translate(221.40625,117.60546875)"/>
<path d="M0 0 C69.63 0 139.26 0 211 0 C211 15.84 211 31.68 211 48 C188.33921645 59.33039178 160.33552622 49 135 49 C135 112.36 135 175.72 135 241 C115.86 241 96.72 241 77 241 C77 177.64 77 114.28 77 49 C51.59 49 26.18 49 0 49 C0 32.83 0 16.66 0 0 Z " fill="#C62086" transform="translate(869,90)"/>
<path d="M0 0 C4.36568724 3.64119551 8.59624398 7.37530633 12.73046875 11.27734375 C13.64957031 12.10878906 14.56867188 12.94023438 15.515625 13.796875 C22.76877927 20.61104882 27.30112717 27.50646691 31.73046875 36.27734375 C32.27445313 37.28152344 32.8184375 38.28570313 33.37890625 39.3203125 C39.95145171 52.2151796 43.50609309 67.81374337 43.73046875 82.27734375 C43.75101318 83.42154785 43.75101318 83.42154785 43.77197266 84.58886719 C43.86960634 90.82095433 43.83577613 97.04562487 43.73046875 103.27734375 C43.70533203 105.19160156 43.70533203 105.19160156 43.6796875 107.14453125 C42.6422634 132.81336758 28.40893609 156.96544531 10.0859375 174.328125 C-4.17271797 187.22435296 -21.84922101 196.13223483 -40.26953125 201.27734375 C-41.25421387 201.5714917 -41.25421387 201.5714917 -42.25878906 201.87158203 C-72.60057637 210.71103079 -104.03035948 205.79429311 -131.60546875 191.5546875 C-159.06537602 176.31119567 -180.50043331 150.15591646 -189.23828125 119.92578125 C-195.59902128 92.4214702 -192.43512656 58.42147034 -177.87890625 33.7734375 C-160.04959104 6.12068892 -133.14687993 -13.85750318 -100.76953125 -21.03515625 C-66.04374155 -28.5076513 -28.27461918 -22.32206777 0 0 Z M-136.26953125 23.27734375 C-136.91277344 23.80585937 -137.55601562 24.334375 -138.21875 24.87890625 C-154.32271523 39.51887464 -162.73563024 63.10226001 -164.26953125 84.27734375 C-165.33623395 110.11184478 -161.29338409 130.71121412 -143.76953125 150.52734375 C-142.27774221 152.11841568 -140.77808486 153.70215791 -139.26953125 155.27734375 C-138.29886719 156.34275391 -138.29886719 156.34275391 -137.30859375 157.4296875 C-123.52957876 172.0804361 -101.41091127 179.57709353 -81.57421875 180.38745117 C-53.26910761 180.94947458 -29.53627774 175.73223484 -8.45703125 155.58984375 C-7.73515625 154.82671875 -7.01328125 154.06359375 -6.26953125 153.27734375 C-5.480625 152.52582031 -4.69171875 151.77429688 -3.87890625 151 C12.18631457 134.23733695 18.16771511 107.34252181 17.875 84.9453125 C17.30189948 62.0352696 7.31247957 41.22214618 -8.609375 24.875 C-24.80275657 9.52146966 -46.11884859 1.34484653 -68.26953125 0.27734375 C-69.4296875 0.21546875 -69.4296875 0.21546875 -70.61328125 0.15234375 C-94.92423979 -0.49594848 -117.61664128 7.78453859 -136.26953125 23.27734375 Z " fill="#5A86C7" transform="translate(594.26953125,741.72265625)"/>
<path d="M0 0 C1.01964844 0.81726563 2.03929687 1.63453125 3.08984375 2.4765625 C7.70125975 6.47518631 11.25818248 11.20001943 15 16 C15.68449219 16.85722656 16.36898438 17.71445312 17.07421875 18.59765625 C22.89377987 26.17794903 27.30214017 34.2153084 31 43 C31.27537598 43.64211426 31.55075195 44.28422852 31.83447266 44.94580078 C36.59020661 56.75015859 36.46932772 69.09640447 36.5 81.625 C36.50467285 82.45299103 36.5093457 83.28098206 36.51416016 84.13406372 C36.58456304 116.48058886 26.6314195 145.5869409 3.96484375 169.15234375 C-18.54159782 191.46482858 -53.09692245 200.26366022 -83.8125 200.5 C-111.31084193 200.24882065 -138.19327607 190.12198536 -159 172 C-159.88171875 171.26265625 -160.7634375 170.5253125 -161.671875 169.765625 C-182.7220984 151.56966918 -195.78527805 125.77436856 -198 98 C-198.15955217 93.89484108 -198.18500883 89.79543803 -198.1875 85.6875 C-198.19974609 84.63626953 -198.21199219 83.58503906 -198.22460938 82.50195312 C-198.28074769 52.0562732 -184.04744746 25.5154774 -163.3125 4 C-161.56246361 2.31150923 -159.79029048 0.64574861 -158 -1 C-157.51499023 -1.44875488 -157.02998047 -1.89750977 -156.53027344 -2.35986328 C-141.79820025 -15.71226612 -123.13971592 -21.84299933 -104 -26 C-102.95714844 -26.24492188 -101.91429687 -26.48984375 -100.83984375 -26.7421875 C-64.80614723 -33.82283311 -27.84904191 -23.20113285 0 0 Z M-110 0 C-111.58748047 0.56074219 -111.58748047 0.56074219 -113.20703125 1.1328125 C-136.641944 10.21797765 -154.46184711 26.54311568 -164.6484375 49.4765625 C-170.06224874 63.59002417 -171.3691801 77.97437 -171 93 C-170.99484375 94.15242187 -170.9896875 95.30484375 -170.984375 96.4921875 C-170.3629446 117.48765742 -159.89456975 136.6371401 -145.51953125 151.578125 C-125.02569739 170.73611278 -99.78924338 175.65444832 -72.62744141 175.08886719 C-49.45343203 174.3050594 -29.72260259 164.49594461 -13 149 C-12.38640625 148.43925781 -11.7728125 147.87851562 -11.140625 147.30078125 C-9.78023217 146.03771527 -9.78023217 146.03771527 -10 144 C-9.34 144 -8.68 144 -8 144 C1.71331129 131.57039988 6.99205342 118.46653613 10 103 C10.185625 102.08734375 10.37125 101.1746875 10.5625 100.234375 C13.67642646 77.21356152 9.5706994 51.14506601 -4 32 C-7.37036814 27.70770384 -11.11914428 23.82933994 -15 20 C-15.66773438 19.33355469 -16.33546875 18.66710937 -17.0234375 17.98046875 C-27.41857589 8.26518118 -39.59901348 3.02715486 -53 -1 C-54.60681641 -1.51240234 -54.60681641 -1.51240234 -56.24609375 -2.03515625 C-73.21642087 -6.59023781 -93.47261059 -5.87384571 -110 0 Z " fill="#5B86C7" transform="translate(1044,747)"/>
<path d="M0 0 C0.92748047 0.00966797 1.85496094 0.01933594 2.81054688 0.02929688 C6.77266374 0.09499889 10.35880056 0.22523034 14.1875 1.3125 C8.53633699 16.07844206 -2.52426467 26.4424824 -14.0234375 36.78515625 C-19.68601143 41.9163682 -24.87002406 47.32876383 -29.83984375 53.125 C-32.98882117 56.61693536 -36.38622557 59.85398518 -39.7734375 63.11328125 C-42.38743714 65.74568934 -44.65987469 68.59027033 -46.96875 71.4921875 C-52.25873723 78.03919593 -58.24789658 83.77203422 -64.41015625 89.49194336 C-65.83299225 90.81826365 -67.23331889 92.16860364 -68.6328125 93.51953125 C-69.46055176 94.2978833 -70.28829102 95.07623535 -71.14111328 95.87817383 C-73.13554161 98.25269495 -73.13554161 98.25269495 -72.64208984 101.44921875 C-69.19322969 113.35275961 -60.35184499 123.01645034 -51.6171875 131.44921875 C-48.5581358 134.60759031 -45.8789107 138.07621913 -43.125 141.5 C-40.96900265 144.12215894 -38.73682897 146.62858568 -36.4375 149.125 C-32.33989983 153.61522736 -28.62039015 158.33047561 -24.90332031 163.13330078 C-21.45038332 167.56847632 -17.79466655 171.75295572 -13.98828125 175.890625 C-11.69339933 178.44507166 -9.53058866 181.07722107 -7.375 183.75 C-3.46613858 188.57979735 0.64308715 193.18116439 4.84375 197.7578125 C8.02292618 201.22311454 11.14064312 204.73038448 14.1875 208.3125 C14.90421875 209.15039062 15.6209375 209.98828125 16.359375 210.8515625 C17.08640625 211.72554687 17.8134375 212.59953125 18.5625 213.5 C19.23023438 214.29792969 19.89796875 215.09585938 20.5859375 215.91796875 C22.27960209 218.45020385 22.81471984 220.3142824 23.1875 223.3125 C-2.76750313 227.23552341 -2.76750313 227.23552341 -13.6875 219.8125 C-17.91657947 216.50878532 -21.09337554 212.55943756 -24.40234375 208.359375 C-26.92436055 205.17108796 -29.54127314 202.08469642 -32.1875 199 C-36.05894225 194.46443615 -39.78370593 189.83728016 -43.4375 185.125 C-47.36144746 180.07130521 -51.44532505 175.24137468 -55.77734375 170.52734375 C-57.59717169 168.54684003 -59.36816331 166.53623723 -61.125 164.5 C-64.1697043 161.00733921 -67.29356709 157.59068987 -70.4375 154.1875 C-70.94321533 153.63980957 -71.44893066 153.09211914 -71.9699707 152.52783203 C-74.74424247 149.52952929 -77.53239311 146.54517347 -80.3359375 143.57421875 C-81.20677979 142.64730225 -81.20677979 142.64730225 -82.09521484 141.70166016 C-83.20905373 140.51688015 -84.32636802 139.33535419 -85.44775391 138.15771484 C-88.65669597 134.73881369 -91.31919203 131.28620958 -93.8125 127.3125 C-109.97780655 135.42122635 -125.85434496 146.08359862 -134.8125 162.3125 C-136.37007801 167.17269608 -137.34652387 171.96772328 -137.9296875 177.02734375 C-138.05644363 178.12102516 -138.05644363 178.12102516 -138.1857605 179.23680115 C-139.12049559 188.10774365 -139.03076165 196.96675283 -138.9375 205.875 C-138.92743099 207.58007276 -138.9183122 209.2851514 -138.91015625 210.99023438 C-138.89022566 215.09792861 -138.85103 219.20477366 -138.8125 223.3125 C-148.0525 223.3125 -157.2925 223.3125 -166.8125 223.3125 C-166.8125 150.0525 -166.8125 76.7925 -166.8125 1.3125 C-157.5725 1.3125 -148.3325 1.3125 -138.8125 1.3125 C-138.14077728 17.59617838 -137.62974624 33.86284606 -137.36694336 50.15768433 C-137.10578038 66.1906609 -136.82287521 82.22280061 -136.3125 98.25 C-136.25932617 99.98382935 -136.25932617 99.98382935 -136.20507812 101.75268555 C-136.01260495 107.41418273 -135.70745274 113.05536135 -135.29492188 118.70532227 C-135.20464722 119.94798355 -135.11437256 121.19064484 -135.0213623 122.47096252 C-134.95243774 123.40866989 -134.88351318 124.34637726 -134.8125 125.3125 C-129.19349786 119.71679043 -123.57729316 114.11829374 -117.96452236 108.51633453 C-115.35748711 105.9144914 -112.74954126 103.31357556 -110.1394043 100.71484375 C-107.61491107 98.20131107 -105.09295389 95.68525828 -102.572649 93.16752625 C-101.15483321 91.75242487 -99.73448251 90.33986472 -98.31407166 88.92736816 C-93.81369183 84.42737444 -89.43557009 79.8851332 -85.30177307 75.04455566 C-82.7283687 72.05163267 -80.01205161 69.19126143 -77.3125 66.3125 C-73.29362808 62.00607677 -69.32123469 57.67554602 -65.46875 53.21875 C-55.79926962 42.08972541 -45.71541735 31.30928089 -35.625 20.5625 C-34.64551392 19.51727173 -34.64551392 19.51727173 -33.64624023 18.45092773 C-32.35674575 17.08091087 -31.06142314 15.71635559 -29.76025391 14.35742188 C-28.44281859 12.97426342 -27.14331626 11.57383633 -25.86083984 10.15820312 C-18.14054948 1.90133062 -11.17107939 -0.35677684 0 0 Z " fill="#5E89C8" transform="translate(166.8125,719.6875)"/>
<path d="M0 0 C1.24136719 0.04382813 2.48273438 0.08765625 3.76171875 0.1328125 C9.17717887 1.26475686 11.97782739 4.18544335 15.33984375 8.44140625 C21.55009552 18.1822306 26.93796908 28.34648691 32.34741211 38.54600525 C41.45663858 55.71996329 50.69561589 72.83019947 61.22900391 89.18115234 C63.65976911 92.98120845 65.99551724 96.8408955 68.3515625 100.6875 C69.75290279 102.96537585 71.16338615 105.23548134 72.5859375 107.5 C72.95831543 108.09594971 73.33069336 108.69189941 73.71435547 109.3059082 C74.7546839 110.97001737 75.79909802 112.63157031 76.84375 114.29296875 C78.3125 116.875 78.3125 116.875 78.3125 118.875 C87.56345104 110.2022334 93.83782433 99.9352366 100.07324219 89.02685547 C101.96482505 85.74229846 103.917232 82.49540165 105.875 79.25 C106.62636879 78.00134222 107.3776713 76.75264455 108.12890625 75.50390625 C108.49516113 74.89562988 108.86141602 74.28735352 109.23876953 73.66064453 C110.25421451 71.97193045 111.26589478 70.28095426 112.27734375 68.58984375 C119.12785029 57.13726948 126.03534612 45.71893772 132.989151 34.32881165 C135.1711609 30.7535165 137.34121962 27.17136574 139.50164795 23.58299255 C141.15728376 20.84060436 142.83000294 18.10865866 144.5 15.375 C145.09893066 14.37283447 145.69786133 13.37066895 146.31494141 12.33813477 C149.93995738 6.44991653 152.70468791 2.74840204 159.21484375 0.1015625 C162.45472042 -0.24836831 165.63815812 0.00029185 168.875 0.25 C169.88336914 0.31574219 169.88336914 0.31574219 170.91210938 0.3828125 C173.90710513 0.59695321 176.45066492 0.92105497 179.3125 1.875 C178.7310971 6.72747805 177.26878651 10.80707467 175.1875 15.1875 C174.67449341 16.2707959 174.67449341 16.2707959 174.15112305 17.37597656 C168.64715312 28.63457603 161.87867724 39.21709987 155.3125 49.875 C154.14278408 51.78879053 152.97349481 53.70284192 151.8046875 55.6171875 C144.43624766 67.64481306 136.85806073 79.49864762 128.6875 91 C124.61758773 96.79106676 120.87819448 102.76191313 117.3125 108.875 C116.94866211 109.49729492 116.58482422 110.11958984 116.20996094 110.76074219 C95.72624066 146.30026382 93.9027044 183.71503161 94.3125 223.875 C85.0725 223.875 75.8325 223.875 66.3125 223.875 C66.34730469 221.15894531 66.38210938 218.44289063 66.41796875 215.64453125 C66.95887071 188.59170599 66.95887071 188.59170599 63.3125 161.875 C63.13557617 161.07594238 62.95865234 160.27688477 62.77636719 159.45361328 C58.54854243 140.90302814 51.60043786 124.44031035 42.3125 107.875 C41.95317383 107.23240234 41.59384766 106.58980469 41.22363281 105.92773438 C36.04573686 96.77175881 30.1352354 88.14259902 24.17749023 79.48120117 C13.00808032 63.20434619 2.74421554 46.41884349 -7.21533203 29.38134766 C-9.79592008 24.98792859 -12.4271999 20.62511241 -15.06176758 16.26391602 C-18.35055381 10.8089391 -18.7895364 8.20125694 -18.6875 1.875 C-13.16026805 -0.88861597 -6.00596803 -0.21280989 0 0 Z " fill="#5E88C8" transform="translate(209.6875,719.125)"/>
<path d="M0 0 C59.73 0 119.46 0 181 0 C181 7.26 181 14.52 181 22 C180.01 22.99 179.02 23.98 178 25 C153.91 25 129.82 25 105 25 C105 90.01 105 155.02 105 222 C95.76 222 86.52 222 77 222 C77 156.99 77 91.98 77 25 C51.59 25 26.18 25 0 25 C0 16.75 0 8.5 0 0 Z " fill="#628CCA" transform="translate(652,721)"/>
<path d="M0 0 C1.31328781 -0.0049926 1.31328781 -0.0049926 2.65310669 -0.01008606 C4.50750197 -0.01515395 6.36190639 -0.01749443 8.21630859 -0.01733398 C11.0519112 -0.01951708 13.8871227 -0.03766478 16.72265625 -0.05664062 C18.52343617 -0.05957525 20.32421794 -0.06155958 22.125 -0.0625 C22.97303192 -0.06968552 23.82106384 -0.07687103 24.6947937 -0.08427429 C25.88590256 -0.07965935 25.88590256 -0.07965935 27.10107422 -0.07495117 C27.79675507 -0.07637619 28.49243591 -0.07780121 29.209198 -0.07926941 C32.51756019 0.33256655 34.62603422 1.50961026 36.79296875 4.015625 C44.33458368 15.41854678 46.87163395 27.92914204 44.65234375 41.484375 C40.32359312 60.64874986 32.19483961 78.97199439 24.7578125 97.10546875 C24.37254395 98.05067886 24.37254395 98.05067886 23.97949219 99.01498413 C23.24685755 100.80698236 22.50447834 102.59498719 21.76171875 104.3828125 C21.33834229 105.4049585 20.91496582 106.42710449 20.47875977 107.48022461 C18.1047401 112.45180203 18.1047401 112.45180203 16.1953125 114.16796875 C13.34001356 114.52366201 10.87613869 114.63478014 8.02734375 114.55859375 C7.23253098 114.55293396 6.4377182 114.54727417 5.61882019 114.54144287 C3.08120384 114.51905879 0.5450017 114.46886137 -1.9921875 114.41796875 C-3.71287023 114.39790625 -5.43357509 114.37965504 -7.15429688 114.36328125 C-11.37163832 114.31918769 -15.58792319 114.2501484 -19.8046875 114.16796875 C-19.30764361 106.04106887 -17.57981203 98.4128173 -15.5546875 90.54296875 C-15.24329834 89.31416992 -14.93190918 88.08537109 -14.61108398 86.81933594 C-12.30511579 77.83227634 -9.7675156 68.96087794 -6.8046875 60.16796875 C-7.45695313 59.76707031 -8.10921875 59.36617187 -8.78125 58.953125 C-16.25258735 54.09344982 -21.6722825 48.86421225 -24.1796875 40.10546875 C-26.15411833 27.6665545 -23.4823802 16.84597737 -16.8046875 6.16796875 C-11.71662124 0.5278953 -7.29494304 0.00952725 0 0 Z " fill="#C62187" transform="translate(805.8046875,76.83203125)"/>
</svg>
