<svg width="120" height="120" viewBox="0 0 120 120" fill="none" xmlns="http://www.w3.org/2000/svg">
<path d="M2.87332 30.947C3.53696 30.2833 4.81382 29.5693 5.84708 30.611C6.3175 31.0814 6.46871 31.8374 5.79667 32.5179C5.19184 33.1227 3.81417 32.8371 3.67976 31.6694C2.77252 32.4003 2.89852 33.9543 3.62096 34.6936C6.3343 37.4573 10.4169 32.5179 9.14845 26.2931C9.23245 28.5529 7.61117 29.3425 6.3595 29.2669C3.22614 29.0569 3.31014 24.5879 5.99828 24.3862C7.19115 24.3442 7.56917 25.6799 6.90553 26.3183C6.43511 26.772 5.33465 26.9148 4.97343 25.7471C4.3434 26.5872 4.88103 28.2504 6.3595 28.3512C7.42636 28.4269 8.61922 27.1164 8.35881 25.7975C6.98953 18.9092 11.929 13.8437 17.6497 17.6827C13.8107 11.962 18.8762 7.01414 25.7645 8.39181C27.0834 8.65222 28.4023 7.45936 28.3182 6.39251C28.209 4.91403 26.5542 4.368 25.7141 5.00643C26.8818 5.35925 26.7474 6.46811 26.2853 6.93853C25.6469 7.59377 24.3112 7.22415 24.3532 6.03129C24.5549 3.34315 29.0239 3.25914 29.2339 6.39251C29.3179 7.64417 28.5199 9.26546 26.2601 9.18145C32.4849 10.4415 37.4243 6.3673 34.6606 3.65396C33.9213 2.93153 32.3757 2.80552 31.6364 3.71277C32.8125 3.84717 33.0897 5.22485 32.4849 5.82968C31.8128 6.50171 31.0484 6.3505 30.578 5.88008C29.5447 4.84683 30.2503 3.56996 30.914 2.90632C32.0816 1.73866 34.1902 1.75546 35.383 2.94833C38.6088 6.17409 33.8709 11.458 27.075 10.0719C27.5538 10.6179 27.9234 11.6512 27.5874 12.3568C26.1089 15.4734 22.0515 12.9532 23.7652 11.2396C24.1936 10.8111 24.9077 10.8279 25.3445 11.2648C25.9661 11.8864 25.6049 12.8524 25.0085 13.0961C25.6637 13.2305 26.487 12.9112 26.7642 12.1048C27.6798 9.44186 22.0767 8.50102 20.4218 9.38306C21.7995 9.27386 22.7404 10.4583 22.5051 11.5168C22.2447 12.6928 20.7747 13.3313 20.111 12.5668C19.8338 12.2476 19.8086 11.7772 20.111 11.4748C20.4134 11.1724 20.9007 11.1724 21.2031 11.4748C21.4047 11.6764 21.4719 11.9536 21.4047 12.214C21.6735 12.0628 21.9675 11.7688 21.9927 11.416C22.2111 8.66062 16.2468 9.40826 17.1457 15.0618C17.5825 13.2221 19.5146 13.3565 20.153 14.3309C21.1359 15.8346 19.3298 17.5399 18.3973 16.5738C18.1621 16.3302 18.1537 15.9438 18.3973 15.7002C18.6409 15.4566 19.0274 15.4566 19.271 15.7002C19.397 15.8262 19.4558 16.0026 19.4474 16.1706C19.7414 15.9354 19.985 15.465 19.8506 15.0702C19.187 13.0793 14.9784 14.5241 20.1866 19.7324C20.3378 19.8836 20.3462 20.1692 20.2118 20.2616C20.1194 20.396 19.8338 20.3876 19.6826 20.2364C14.4743 15.0282 13.0294 19.2368 15.0204 19.9004C15.4236 20.0348 15.8856 19.7912 16.1208 19.4972C15.9528 19.5056 15.7848 19.4468 15.6504 19.3208C15.4068 19.0772 15.4068 18.6907 15.6504 18.4471C15.894 18.2035 16.2804 18.2119 16.524 18.4471C17.4901 19.3796 15.7848 21.1773 14.2811 20.2028C13.3067 19.5644 13.1723 17.6323 15.012 17.1955C9.35846 16.2966 8.61082 22.2609 11.3662 22.0425C11.719 22.0173 12.0046 21.7233 12.1642 21.4545C11.9122 21.5217 11.6266 21.4545 11.425 21.2529C11.1226 20.9505 11.1226 20.4632 11.425 20.1608C11.7274 19.8584 12.1978 19.8836 12.517 20.1608C13.2815 20.8245 12.6346 22.3029 11.467 22.5549C10.4001 22.7902 9.22405 21.8493 9.33326 20.4716C8.45121 22.1265 9.39206 27.7296 12.055 26.814C12.8614 26.5368 13.1807 25.7135 13.0463 25.0583C12.8026 25.6547 11.8366 26.0243 11.215 25.3943C10.7865 24.9659 10.7613 24.2518 11.1898 23.815C12.9034 22.1013 15.4236 26.1587 12.307 27.6372C11.6014 27.9732 10.5681 27.6036 10.0221 27.1248C11.4082 33.9207 6.12429 38.6586 2.89852 35.4328C1.70566 34.24 1.68886 32.1398 2.85652 30.9638L2.87332 30.947Z" fill="#FFB8DA"/>
<path d="M16.9195 10.2064C15.2478 11.5253 13.7694 9.50916 14.937 8.82032C15.5503 8.4591 16.1971 9.26554 15.8023 9.74437C17.7008 8.4843 16.0123 6.443 14.5758 7.48465C13.2317 8.4591 14.307 11.6849 15.6763 14.3646C13.5342 12.2561 11.8877 8.15668 14.0718 6.5858C16.5079 4.83011 19.3137 8.31629 16.9279 10.1896L16.9195 10.2064Z" fill="#FFB8DA"/>
<path d="M7.44335 12.5671C7.15773 12.6175 6.66211 12.4663 6.64531 11.9455C6.5949 10.4838 9.01423 10.6518 10.1063 11.6095C8.32539 11.5003 8.14899 12.4327 7.44335 12.5671Z" fill="#FFB8DA"/>
<path d="M12.5593 7.45116C12.6097 7.16555 12.4585 6.66992 11.9377 6.65312C10.476 6.60272 10.644 9.02204 11.6017 10.1141C11.4925 8.33321 12.4249 8.1568 12.5593 7.45116Z" fill="#FFB8DA"/>
<path d="M10.2061 16.9186C11.525 15.2469 9.50891 13.7684 8.82008 14.936C8.45886 15.5493 9.2653 16.1961 9.74412 15.8013C8.48406 17.6998 6.44275 16.0113 7.48441 14.5748C8.45886 13.2308 11.6846 14.306 14.3644 15.6753C12.2559 13.5332 8.15644 11.8867 6.58556 14.0708C4.82987 16.5069 8.31605 19.3127 10.1893 16.927L10.2061 16.9186Z" fill="#FFB8DA"/>
<path d="M9.67744 9.66895L9.52623 9.71935C6.78769 10.4922 5.70403 9.70255 5.41841 9.41693C4.45236 8.45088 5.0404 7.40083 5.48562 7.07321C5.88884 6.7708 6.27526 6.72879 6.56087 6.75399C6.60288 6.75399 6.68688 6.75399 6.72048 6.71199C6.76248 6.66999 6.76248 6.59439 6.75408 6.55238C6.72888 6.26677 6.77089 5.88035 7.0733 5.47713C7.40092 5.04031 8.45097 4.44387 9.41702 5.40992C9.70264 5.69554 10.4923 6.7792 9.71944 9.51774L9.67744 9.66895Z" fill="#FFB8DA"/>
<path d="M11.2072 11.7187C11.4855 11.7187 11.7112 11.4931 11.7112 11.2147C11.7112 10.9364 11.4855 10.7107 11.2072 10.7107C10.9288 10.7107 10.7031 10.9364 10.7031 11.2147C10.7031 11.4931 10.9288 11.7187 11.2072 11.7187Z" fill="#FFB8DA"/>
<path d="M3.38629 50.9489C3.75281 50.9489 4.04993 50.6517 4.04993 50.2852C4.04993 49.9187 3.75281 49.6216 3.38629 49.6216C3.01978 49.6216 2.72266 49.9187 2.72266 50.2852C2.72266 50.6517 3.01978 50.9489 3.38629 50.9489Z" fill="#FFB8DA"/>
<path d="M3.38629 62.9698C3.75281 62.9698 4.04993 62.6727 4.04993 62.3062C4.04993 61.9397 3.75281 61.6426 3.38629 61.6426C3.01978 61.6426 2.72266 61.9397 2.72266 62.3062C2.72266 62.6727 3.01978 62.9698 3.38629 62.9698Z" fill="#FFB8DA"/>
<path d="M3.38629 74.2767C3.75281 74.2767 4.04993 73.9796 4.04993 73.6131C4.04993 73.2466 3.75281 72.9495 3.38629 72.9495C3.01978 72.9495 2.72266 73.2466 2.72266 73.6131C2.72266 73.9796 3.01978 74.2767 3.38629 74.2767Z" fill="#FFB8DA"/>
<path d="M3.89087 83.3827C3.89087 83.6599 3.66405 83.8867 3.38684 83.8867C3.10962 83.8867 2.88281 83.6599 2.88281 83.3827C2.88281 83.1055 3.10962 82.8787 3.38684 82.8787C3.66405 82.8787 3.89087 83.1055 3.89087 83.3827Z" fill="#FFB8DA"/>
<path d="M3.89087 92.4554C3.89087 92.7327 3.66405 92.9595 3.38684 92.9595C3.10962 92.9595 2.88281 92.7327 2.88281 92.4554C2.88281 92.1782 3.10962 91.9514 3.38684 91.9514C3.66405 91.9514 3.89087 92.1782 3.89087 92.4554Z" fill="#FFB8DA"/>
<path d="M3.89087 100.31C3.89087 100.587 3.66405 100.814 3.38684 100.814C3.10962 100.814 2.88281 100.587 2.88281 100.31C2.88281 100.033 3.10962 99.8059 3.38684 99.8059C3.66405 99.8059 3.89087 100.033 3.89087 100.31Z" fill="#FFB8DA"/>
<path d="M3.89087 106.946C3.89087 107.223 3.66405 107.45 3.38684 107.45C3.10962 107.45 2.88281 107.223 2.88281 106.946C2.88281 106.669 3.10962 106.442 3.38684 106.442C3.66405 106.442 3.89087 106.669 3.89087 106.946Z" fill="#FFB8DA"/>
<path d="M3.38626 63.7842C5.41917 67.934 4.76393 70.5381 3.38626 72.4366C2.00859 70.5381 1.35336 67.934 3.38626 63.7842Z" fill="#FFB8DA"/>
<path d="M3.38626 39.8013C5.41917 43.9511 4.76393 46.5552 3.38626 48.4537C2.00859 46.5552 1.35336 43.9511 3.38626 39.8013Z" fill="#FFB8DA"/>
<path d="M3.38626 52.3096C5.41917 56.4594 4.76393 59.0635 3.38626 60.962C2.00859 59.0635 1.35336 56.4594 3.38626 52.3096Z" fill="#FFB8DA"/>
<path d="M3.3858 74.7385C5.17509 78.3927 4.60386 80.686 3.3858 82.3577C2.16774 80.686 1.59651 78.3927 3.3858 74.7385Z" fill="#FFB8DA"/>
<path d="M3.38641 84.668C4.93209 87.8265 4.43647 89.809 3.38641 91.2539C2.33636 89.809 1.84073 87.8265 3.38641 84.668Z" fill="#FFB8DA"/>
<path d="M3.38596 93.5723C4.68802 96.2436 4.2764 97.9153 3.38596 99.1334C2.49551 97.9153 2.08389 96.2436 3.38596 93.5723Z" fill="#FFB8DA"/>
<path d="M3.38607 101.444C4.45293 103.619 4.10851 104.98 3.38607 105.971C2.66364 104.98 2.31922 103.611 3.38607 101.444Z" fill="#FFB8DA"/>
<path d="M3.38673 108.038C2.35348 109.836 2.98351 111.138 3.38673 111.768C3.78995 111.129 4.41999 109.836 3.38673 108.038Z" fill="#FFB8DA"/>
<path d="M50.2867 4.04846C50.6479 4.04846 50.9503 3.75445 50.9503 3.38483C50.9503 3.02361 50.6563 2.72119 50.2867 2.72119C49.9171 2.72119 49.623 3.01521 49.623 3.38483C49.623 3.74604 49.9171 4.04846 50.2867 4.04846Z" fill="#FFB8DA"/>
<path d="M62.3082 4.04846C62.6694 4.04846 62.9718 3.75445 62.9718 3.38483C62.9718 3.02361 62.6778 2.72119 62.3082 2.72119C61.9385 2.72119 61.6445 3.01521 61.6445 3.38483C61.6445 3.74604 61.9385 4.04846 62.3082 4.04846Z" fill="#FFB8DA"/>
<path d="M73.6148 4.04846C73.976 4.04846 74.2784 3.75445 74.2784 3.38483C74.2784 3.01521 73.9844 2.72119 73.6148 2.72119C73.2452 2.72119 72.9512 3.01521 72.9512 3.38483C72.9512 3.74604 73.2452 4.04846 73.6148 4.04846Z" fill="#FFB8DA"/>
<path d="M83.3849 3.88891C83.6621 3.88891 83.8889 3.6621 83.8889 3.38489C83.8889 3.10767 83.6621 2.88086 83.3849 2.88086C83.1077 2.88086 82.8809 3.10767 82.8809 3.38489C82.8809 3.6621 83.1077 3.88891 83.3849 3.88891Z" fill="#FFB8DA"/>
<path d="M92.4571 3.88891C92.7344 3.88891 92.9612 3.6621 92.9612 3.38489C92.9612 3.10767 92.7344 2.88086 92.4571 2.88086C92.1799 2.88086 91.9531 3.10767 91.9531 3.38489C91.9531 3.6621 92.1799 3.88891 92.4571 3.88891Z" fill="#FFB8DA"/>
<path d="M100.313 3.88891C100.59 3.88891 100.817 3.6621 100.817 3.38489C100.817 3.10767 100.59 2.88086 100.313 2.88086C100.035 2.88086 99.8086 3.10767 99.8086 3.38489C99.8086 3.6621 100.035 3.88891 100.313 3.88891Z" fill="#FFB8DA"/>
<path d="M106.947 3.88891C107.225 3.88891 107.451 3.6621 107.451 3.38489C107.451 3.10767 107.225 2.88086 106.947 2.88086C106.67 2.88086 106.443 3.10767 106.443 3.38489C106.443 3.6621 106.67 3.88891 106.947 3.88891Z" fill="#FFB8DA"/>
<path d="M63.7773 3.38529C67.9272 5.41819 70.5313 4.76296 72.4298 3.38529C70.5313 2.00761 67.9272 1.35238 63.7773 3.38529Z" fill="#FFB8DA"/>
<path d="M39.8027 3.38529C43.9526 5.41819 46.5567 4.76296 48.4552 3.38529C46.5567 2.00761 43.9526 1.35238 39.8027 3.38529Z" fill="#FFB8DA"/>
<path d="M52.3105 3.38529C56.4604 5.41819 59.0645 4.76296 60.963 3.38529C59.0645 2.00761 56.4604 1.35238 52.3105 3.38529Z" fill="#FFB8DA"/>
<path d="M74.7402 3.38556C78.3944 5.17485 80.6877 4.60362 82.3594 3.38556C80.6877 2.16749 78.3944 1.59626 74.7402 3.38556Z" fill="#FFB8DA"/>
<path d="M84.6699 3.38544C87.8285 4.93112 89.811 4.43549 91.2559 3.38544C89.811 2.33538 87.8285 1.83976 84.6699 3.38544Z" fill="#FFB8DA"/>
<path d="M93.5742 3.38522C96.2456 4.68729 97.9172 4.27567 99.1353 3.38522C97.9172 2.49478 96.2456 2.08316 93.5742 3.38522Z" fill="#FFB8DA"/>
<path d="M101.445 3.38559C103.621 4.45244 104.982 4.10802 105.973 3.38559C104.982 2.66315 103.613 2.31873 101.445 3.38559Z" fill="#FFB8DA"/>
<path d="M108.041 3.38527C109.839 2.35201 111.141 2.98205 111.771 3.38527C111.132 3.78849 109.839 4.41852 108.041 3.38527Z" fill="#FFB8DA"/>
<path d="M113.525 4.05737C112.895 4.5194 113.181 4.93942 112.979 5.17463C112.895 5.27544 112.693 5.35944 112.542 5.19143C112.122 4.72101 112.929 4.05737 113.525 4.05737Z" fill="#FFB8DA"/>
<path d="M114.559 4.31767C114.559 4.51088 114.399 4.67889 114.198 4.67889H114.105C113.912 4.67889 113.744 4.51928 113.744 4.31767V3.38522V2.45277C113.744 2.25956 113.904 2.09155 114.105 2.09155H114.198C114.391 2.09155 114.559 2.25116 114.559 2.45277V3.38522V4.31767Z" fill="#FFB8DA"/>
<path d="M112.979 1.58767C113.181 1.83129 112.895 2.25131 113.525 2.70493C112.929 2.70493 112.122 2.0413 112.542 1.57087C112.693 1.40286 112.903 1.48687 112.979 1.58767Z" fill="#FFB8DA"/>
<path d="M115.934 4.79645C116.127 4.79645 116.304 4.88046 116.413 5.01486C116.505 5.14087 116.539 5.29208 116.505 5.45169C116.446 5.7037 116.22 5.82131 116.026 5.82131C115.875 5.82131 115.741 5.7541 115.648 5.6449C115.648 5.7793 115.707 6.06492 116.085 6.11532C116.119 6.11532 116.152 6.11532 116.186 6.11532C116.421 6.11532 116.606 5.98091 116.715 5.7037C116.791 5.51889 116.774 5.30888 116.665 5.09047C116.455 4.68725 115.968 4.36803 115.346 4.23362L115.279 4.21682L115.304 3.90601H115.455C116.11 3.90601 116.766 4.17482 117.127 4.60324C117.396 4.92246 117.505 5.31728 117.429 5.7373C117.312 6.44294 116.749 6.75375 116.245 6.75375C115.917 6.75375 115.615 6.62775 115.422 6.40094C115.228 6.18252 115.144 5.88851 115.186 5.55249C115.254 5.01486 115.615 4.77965 115.951 4.77965L115.934 4.79645Z" fill="#FFB8DA"/>
<path d="M117.144 3.30146C117.984 1.80618 118.782 1.68018 119.026 1.68018C119.849 1.68018 120.042 2.37741 119.992 2.70503C119.95 3.00744 119.799 3.18385 119.673 3.30146C119.656 3.31826 119.622 3.35186 119.622 3.38546C119.622 3.41907 119.656 3.45267 119.673 3.46947C119.807 3.57867 119.95 3.76348 119.992 4.0659C120.042 4.39352 119.849 5.09075 119.026 5.09075C118.782 5.09075 117.984 4.96475 117.144 3.46947C117.144 3.45267 117.119 3.41907 117.119 3.38546C117.119 3.35186 117.136 3.31826 117.144 3.30146Z" fill="#FFB8DA"/>
<path d="M115.456 2.85615H115.305L115.28 2.54533L115.347 2.52853C115.96 2.39412 116.456 2.07491 116.666 1.67169C116.775 1.46168 116.792 1.25167 116.716 1.06686C116.607 0.798042 116.422 0.655234 116.187 0.655234C116.154 0.655234 116.12 0.655234 116.086 0.655234C115.708 0.714037 115.658 0.991252 115.65 1.12566C115.734 1.00805 115.876 0.949249 116.028 0.949249C116.221 0.949249 116.448 1.06686 116.506 1.31887C116.548 1.47848 116.506 1.63809 116.414 1.75569C116.305 1.8901 116.128 1.9741 115.935 1.9741C115.599 1.9741 115.238 1.73049 115.171 1.20126C115.129 0.865245 115.213 0.57123 115.406 0.352818C115.608 0.126007 115.91 0 116.238 0C116.75 0 117.313 0.310816 117.422 1.01645C117.489 1.44488 117.388 1.8397 117.12 2.15051C116.758 2.57893 116.103 2.84775 115.448 2.84775L115.456 2.85615Z" fill="#FFB8DA"/>
<path d="M2.71226 113.524C2.25023 112.894 1.83021 113.179 1.595 112.978C1.49419 112.894 1.41019 112.692 1.5782 112.541C2.04862 112.121 2.71226 112.927 2.71226 113.524Z" fill="#FFB8DA"/>
<path d="M2.45106 114.557C2.25785 114.557 2.08984 114.397 2.08984 114.196V114.103C2.08984 113.91 2.24945 113.742 2.45106 113.742H3.38351H4.31596C4.50917 113.742 4.67718 113.902 4.67718 114.103V114.196C4.67718 114.389 4.51757 114.557 4.31596 114.557H3.38351H2.45106Z" fill="#FFB8DA"/>
<path d="M5.1739 112.978C4.93029 113.179 4.51026 112.894 4.05664 113.524C4.05664 112.927 4.72028 112.121 5.1907 112.541C5.35871 112.692 5.2747 112.902 5.1739 112.978Z" fill="#FFB8DA"/>
<path d="M1.9741 115.935C1.9741 116.128 1.8901 116.304 1.75569 116.413C1.62968 116.506 1.47848 116.539 1.31887 116.506C1.06686 116.447 0.949249 116.22 0.949249 116.027C0.949249 115.834 1.01645 115.741 1.12566 115.649C0.991252 115.649 0.705637 115.708 0.655234 116.086C0.655234 116.119 0.655234 116.153 0.655234 116.187C0.655234 116.422 0.789641 116.607 1.06686 116.716C1.25167 116.791 1.46168 116.775 1.68009 116.665C2.08331 116.455 2.40253 115.968 2.53693 115.347L2.55373 115.279L2.86455 115.305V115.456C2.86455 116.111 2.59574 116.766 2.16731 117.127C1.8481 117.396 1.45328 117.505 1.03325 117.43C0.310816 117.312 0 116.749 0 116.237C0 115.909 0.126007 115.607 0.352818 115.414C0.57123 115.221 0.865245 115.137 1.20126 115.179C1.73889 115.246 1.9741 115.607 1.9741 115.943V115.935Z" fill="#FFB8DA"/>
<path d="M3.46898 117.144C4.96426 117.984 5.09027 118.782 5.09027 119.026C5.09027 119.849 4.39303 120.042 4.06541 119.992C3.763 119.95 3.58659 119.799 3.46898 119.673C3.45218 119.656 3.41858 119.622 3.38498 119.622C3.35137 119.622 3.31777 119.656 3.30097 119.673C3.19177 119.807 3.00696 119.95 2.70454 119.992C2.37692 120.042 1.67969 119.849 1.67969 119.026C1.67969 118.782 1.80569 117.984 3.30097 117.144C3.31777 117.144 3.35137 117.119 3.38498 117.119C3.41858 117.119 3.45218 117.136 3.46898 117.144Z" fill="#FFB8DA"/>
<path d="M3.91406 115.456V115.305L4.22488 115.279L4.24168 115.347C4.37609 115.96 4.6953 116.456 5.09852 116.666C5.30854 116.775 5.51855 116.792 5.70336 116.716C5.97217 116.607 6.11498 116.422 6.11498 116.187C6.11498 116.153 6.11498 116.119 6.11498 116.086C6.05617 115.708 5.77896 115.657 5.64455 115.649C5.76216 115.733 5.82096 115.876 5.82096 116.027C5.82096 116.22 5.70336 116.447 5.45134 116.506C5.29173 116.548 5.13213 116.506 5.01452 116.414C4.88011 116.304 4.79611 116.128 4.79611 115.935C4.79611 115.599 5.03972 115.237 5.56895 115.17C5.90497 115.128 6.19898 115.212 6.41739 115.405C6.6358 115.607 6.77021 115.901 6.77021 116.229C6.77021 116.741 6.45939 117.304 5.75376 117.413C5.32534 117.48 4.93052 117.38 4.6197 117.111C4.19128 116.75 3.92246 116.094 3.92246 115.439L3.91406 115.456Z" fill="#FFB8DA"/>
</svg>
