<svg width="15" height="15" viewBox="0 0 15 15" fill="none" xmlns="http://www.w3.org/2000/svg">
<g style="mix-blend-mode:multiply">
<path d="M10.9412 10.901C10.6712 10.7895 10.3748 10.7448 10.1102 10.6215C9.84544 10.4981 9.60315 10.2672 9.57836 9.95354C9.5429 9.50418 9.93936 9.13417 10.2 8.75162C10.5888 8.18062 10.6923 7.42461 10.4919 6.80194C10.4667 6.7236 10.4368 6.64744 10.402 6.57412C10.3682 6.50317 10.3578 6.43748 10.3348 6.36299C10.2732 6.16339 10.1769 5.97127 10.081 5.79085C9.88628 5.42455 9.64211 5.09111 9.35738 4.80254C9.21785 4.66123 9.06853 4.53061 8.91067 4.4126C8.80696 4.33504 8.68093 4.25981 8.55267 4.30301C8.45939 4.33441 8.38991 4.42126 8.33022 4.50601C7.83743 5.20519 7.59081 6.0859 7.65507 6.91722C7.71941 7.7484 8.09388 8.52163 8.68055 9.03408C8.8513 9.1832 9.04053 9.31245 9.18295 9.49228C9.32544 9.67195 9.41737 9.91921 9.35436 10.1597C8.70478 9.7636 8.06005 9.34527 7.52992 8.78849C6.99979 8.23171 6.58654 7.521 6.48466 6.71249C6.37 5.80207 6.65081 4.81708 6.40605 3.94691C6.10568 2.87876 5.10918 2.27651 4.49512 1.3949C4.28039 2.29287 3.88398 3.14957 3.69533 4.05208C3.50667 4.9546 3.56637 5.9737 4.15462 6.58257C4.51376 6.95413 5.01877 7.12292 5.44105 7.41273C5.84441 7.68975 6.16747 8.07425 6.48604 8.4545C7.28607 9.40969 8.11697 10.3891 9.22934 10.9063C9.06664 11.0151 8.86052 10.9999 8.69517 10.9245C8.53005 10.8489 8.39457 10.7214 8.25218 10.6072C7.58907 10.076 6.72446 9.82407 5.86028 9.91021C4.99602 9.9965 4.13934 10.4201 3.49035 11.0822C4.12313 11.102 4.56556 11.6575 5.0178 12.0944C5.44964 12.5113 5.96348 12.8543 6.55087 12.97C7.13818 13.0858 7.80661 12.949 8.28662 12.5112C8.69935 12.1348 9.00618 11.5326 9.52713 11.4407C9.96421 11.3635 10.3484 11.6977 10.7854 11.6997C11.0023 11.7008 11.2658 11.5647 11.2888 11.3328C11.3098 11.1215 11.1209 10.9751 10.9414 10.901L10.9412 10.901Z" fill="#FFB8DA"/>
</g>
</svg>
