<svg width="32" height="32" viewBox="0 0 32 32" fill="none" xmlns="http://www.w3.org/2000/svg">
<mask id="mask0_3132_61455" style="mask-type:alpha" maskUnits="userSpaceOnUse" x="0" y="0" width="32" height="32">
<rect width="32" height="32" fill="#ABABAB"/>
</mask>
<g mask="url(#mask0_3132_61455)">
<path d="M18.1074 8.8418C18.1073 7.50483 17.0226 6.42188 15.6855 6.42188C14.3487 6.42204 13.2658 7.50493 13.2656 8.8418C13.2656 10.1788 14.3486 11.2635 15.6855 11.2637V13.6836C13.0115 13.6834 10.8438 11.5159 10.8438 8.8418C10.8439 6.16782 13.0116 4.00017 15.6855 4C18.3597 4 20.5272 6.16772 20.5273 8.8418C20.5273 11.516 18.3598 13.6836 15.6855 13.6836V11.2637C17.0227 11.2637 18.1074 10.1789 18.1074 8.8418Z" fill="#FE8FC4"/>
<path d="M22.9473 22.1582C22.9473 19.4841 20.7796 17.3165 18.1055 17.3164H13.2637C10.5895 17.3164 8.42188 19.484 8.42188 22.1582V24.5781H22.9473V22.1582ZM25.3691 27H6V22.1582C6 18.2725 9.05139 15.0992 12.8887 14.9043L13.2637 14.8945H18.1055L18.4785 14.9043C22.3164 15.0986 25.3691 18.2721 25.3691 22.1582V27Z" fill="#FE8FC4"/>
</g>
</svg>
