<svg width="32" height="32" viewBox="0 0 32 32" fill="none" xmlns="http://www.w3.org/2000/svg">
<mask id="mask0_3132_61461" style="mask-type:alpha" maskUnits="userSpaceOnUse" x="0" y="0" width="32" height="32">
<rect width="32" height="32" fill="#ABABAB"/>
</mask>
<g mask="url(#mask0_3132_61461)">
<path d="M11.393 6.1573C11.3929 5.00934 10.4615 4.07949 9.31355 4.07949C8.16568 4.07963 7.23588 5.00943 7.23574 6.1573C7.23574 7.30529 8.16559 8.23664 9.31355 8.23678V10.3146C7.01751 10.3144 5.15625 8.45336 5.15625 6.1573C5.15639 3.86135 7.0176 2.00014 9.31355 2C11.6096 2 13.4707 3.86126 13.4708 6.1573C13.4708 8.45345 11.6097 10.3146 9.31355 10.3146V8.23678C10.4616 8.23678 11.393 7.30537 11.393 6.1573Z" fill="#FE8FC4"/>
<path d="M15.5514 17.5908C15.5514 15.2947 13.6902 13.4336 11.3941 13.4335H7.23678C4.94063 13.4335 3.07949 15.2946 3.07949 17.5908V19.6686H15.5514V17.5908ZM17.6309 21.7481H1V17.5908C1 14.2544 3.62 11.5297 6.9148 11.3624L7.23678 11.354H11.3941L11.7144 11.3624C15.0097 11.5292 17.6309 14.254 17.6309 17.5908V21.7481Z" fill="#FE8FC4"/>
<path d="M25.393 6.1573C25.3929 5.00934 24.4615 4.07949 23.3135 4.07949C22.1657 4.07963 21.2359 5.00943 21.2357 6.1573C21.2357 7.30529 22.1656 8.23664 23.3135 8.23678V10.3146C21.0175 10.3144 19.1562 8.45336 19.1562 6.1573C19.1564 3.86135 21.0176 2.00014 23.3135 2C25.6096 2 27.4707 3.86126 27.4708 6.1573C27.4708 8.45345 25.6097 10.3146 23.3135 10.3146V8.23678C24.4616 8.23678 25.393 7.30537 25.393 6.1573Z" fill="#FE8FC4"/>
<path d="M29.5514 17.5913C29.5514 15.2952 27.6902 13.4341 25.3941 13.434H21.2368C18.9406 13.434 17.0795 15.2951 17.0795 17.5913V19.6691H29.5514V17.5913ZM31.6309 21.7486H15V17.5913C15 14.2549 17.62 11.5302 20.9148 11.3629L21.2368 11.3545H25.3941L25.7144 11.3629C29.0097 11.5297 31.6309 14.2545 31.6309 17.5913V21.7486Z" fill="#FE8FC4"/>
<path d="M16.3145 7.62598C19.7145 7.62647 22.47 10.3826 22.4707 13.7822V13.7842C22.4705 15.1735 22.0087 16.4542 21.2324 17.4844C24.383 18.6409 26.6307 21.6655 26.6309 25.2168V31.375H6V25.2168C6.00019 21.667 8.2459 18.6439 11.3945 17.4863C10.6176 16.456 10.1565 15.1741 10.1562 13.7842V13.7822L10.1641 13.4658C10.3294 10.2132 13.0189 7.62666 16.3125 7.62598H16.3145ZM22.3799 24.0371C22.4904 24.4111 22.5507 24.8069 22.5508 25.2168V27.2949H22.5518V25.2168C22.5517 24.8068 22.4905 24.4112 22.3799 24.0371ZM10.1221 24.6201C10.094 24.815 10.0791 25.0142 10.0791 25.2168V27.2949H10.0801V25.2168C10.0801 25.0142 10.0941 24.8149 10.1221 24.6201ZM14.2363 23.0605C13.0451 23.0608 12.0803 24.0256 12.0801 25.2168V25.2949H20.5508V25.2168C20.5505 24.0257 19.5858 23.0609 18.3945 23.0605H14.2363ZM24.5635 24.2959C24.5932 24.4964 24.6129 24.7 24.623 24.9062L24.6006 24.5986C24.5906 24.497 24.5783 24.396 24.5635 24.2959ZM20.0127 21.3877C20.0747 21.4139 20.1359 21.4416 20.1963 21.4707C20.257 21.5 20.317 21.5304 20.376 21.5625C20.4938 21.6265 20.6082 21.6958 20.7188 21.7705C21.1608 22.0692 21.5421 22.4506 21.8408 22.8926C21.9155 23.0031 21.9848 23.1176 22.0488 23.2354C22.0809 23.2944 22.1114 23.3543 22.1406 23.415C22.199 23.5363 22.2522 23.6606 22.2988 23.7881L22.2246 23.5986C21.7775 22.5418 20.9057 21.7088 19.8232 21.3125L20.0127 21.3877ZM24.3076 23.2354C24.3593 23.3895 24.4066 23.5458 24.4463 23.7051L24.3672 23.417C24.3488 23.3559 24.3278 23.2957 24.3076 23.2354ZM11.5654 22.0312C11.2433 22.3016 10.9633 22.6203 10.7354 22.9756C10.9632 22.6203 11.2433 22.3016 11.5654 22.0312ZM24.0518 22.5898V22.5908V22.5898ZM11.8623 21.8047C11.8135 21.8387 11.765 21.8731 11.7178 21.9092C11.765 21.8732 11.8135 21.8387 11.8623 21.8047ZM14.2363 21.0596C13.9631 21.0596 13.696 21.0864 13.4375 21.1367C13.5606 21.1128 13.6858 21.0949 13.8125 21.082L14.2363 21.0605H18.3945C18.8043 21.0606 19.2003 21.12 19.5742 21.2305C19.2002 21.1199 18.8044 21.0596 18.3945 21.0596H14.2363ZM13.2549 21.1768C13.1961 21.191 13.1379 21.2069 13.0801 21.2236C13.1379 21.2069 13.1961 21.191 13.2549 21.1768ZM9.72168 20.915C10.0552 20.5652 10.4284 20.2533 10.835 19.9883C10.5099 20.2002 10.206 20.4419 9.92676 20.709C9.85688 20.7758 9.78839 20.8441 9.72168 20.9141V20.915ZM22.0342 20.1533V20.1523V20.1533ZM19.915 19.168C20.0115 19.1922 20.1075 19.2175 20.2021 19.2461C20.0125 19.1887 19.8189 19.1409 19.6221 19.1016L19.915 19.168ZM13.1631 19.0732C12.6143 19.1685 12.0902 19.3348 11.6006 19.5635L11.8701 19.4453C12.2812 19.2766 12.7145 19.1522 13.1641 19.0742L13.1631 19.0732ZM13.6123 16.9414C13.6218 16.9495 13.6311 16.9578 13.6406 16.9658C13.6311 16.9578 13.6218 16.9495 13.6123 16.9414ZM19.3818 16.5859C19.2635 16.7154 19.1376 16.8375 19.0039 16.9512C19.1376 16.8375 19.2635 16.7154 19.3818 16.5859ZM19.4004 16.5654C19.4386 16.5231 19.4763 16.4804 19.5127 16.4365C19.4763 16.4804 19.4386 16.5231 19.4004 16.5654ZM13.1279 16.4531C13.1365 16.4634 13.1456 16.4732 13.1543 16.4834C13.1456 16.4732 13.1365 16.4634 13.1279 16.4531ZM19.543 16.3994C19.577 16.3574 19.6102 16.3148 19.6426 16.2715C19.6102 16.3148 19.577 16.3574 19.543 16.3994ZM19.6709 16.2324C19.6971 16.1966 19.723 16.1607 19.748 16.124C19.723 16.1607 19.6971 16.1966 19.6709 16.2324ZM12.9033 16.1592C12.9168 16.1785 12.9305 16.1977 12.9443 16.2168C12.9305 16.1977 12.9168 16.1785 12.9033 16.1592ZM19.793 16.0566C19.8099 16.0308 19.8264 16.0047 19.8428 15.9785C19.8264 16.0047 19.8099 16.0308 19.793 16.0566ZM19.8936 15.8955C19.9182 15.8539 19.9426 15.8121 19.9658 15.7695C19.9426 15.8121 19.9182 15.8539 19.8936 15.8955ZM19.9932 15.7178C20.0081 15.6894 20.0219 15.6605 20.0361 15.6318C20.0219 15.6605 20.0081 15.6894 19.9932 15.7178ZM20.0791 15.5439C20.095 15.5099 20.111 15.4759 20.126 15.4414C20.111 15.4759 20.095 15.5099 20.0791 15.5439ZM12.4863 15.4082C12.5006 15.4418 12.5161 15.4747 12.5312 15.5078C12.5161 15.4747 12.5006 15.4418 12.4863 15.4082ZM20.1641 15.3496C20.177 15.3178 20.19 15.2861 20.2021 15.2539C20.19 15.2861 20.177 15.3178 20.1641 15.3496ZM20.2305 15.1777C20.2409 15.1484 20.25 15.1185 20.2598 15.0889C20.25 15.1185 20.2409 15.1484 20.2305 15.1777ZM12.3555 15.0576C12.3657 15.0894 12.3767 15.1209 12.3877 15.1523C12.3767 15.1209 12.3657 15.0894 12.3555 15.0576ZM20.291 14.9922C20.302 14.956 20.3122 14.9195 20.3223 14.8828C20.3122 14.9195 20.302 14.956 20.291 14.9922ZM12.2969 14.8584C12.3069 14.8961 12.318 14.9334 12.3291 14.9707C12.318 14.9334 12.3069 14.8961 12.2969 14.8584ZM20.3428 14.8066C20.352 14.7701 20.3599 14.7332 20.3682 14.6963C20.3599 14.7332 20.352 14.7701 20.3428 14.8066ZM12.2559 14.6875C12.263 14.7199 12.2704 14.7521 12.2783 14.7842C12.2704 14.7521 12.263 14.7199 12.2559 14.6875ZM16.3135 11.7051C15.1657 11.7053 14.2355 12.6354 14.2354 13.7832C14.2354 13.8547 14.2391 13.9255 14.2461 13.9951L14.2363 13.7842C14.2365 12.6363 15.1666 11.7062 16.3145 11.7061L16.5254 11.7158C16.4557 11.7088 16.385 11.7051 16.3135 11.7051ZM16.3145 13.7061C16.271 13.7061 16.2363 13.7407 16.2363 13.7842C16.2368 13.829 16.273 13.8623 16.3145 13.8623C16.3283 13.8622 16.3371 13.8592 16.3438 13.8564C16.3517 13.853 16.3606 13.8474 16.3691 13.8389C16.3777 13.8303 16.3833 13.8214 16.3867 13.8135C16.3895 13.8069 16.3925 13.798 16.3926 13.7842C16.3926 13.7427 16.3593 13.7065 16.3145 13.7061ZM20.4521 13.3906C20.4514 13.3825 20.45 13.3744 20.4492 13.3662C20.45 13.3744 20.4514 13.3825 20.4521 13.3906ZM20.4434 13.3125C20.4378 13.2631 20.4321 13.2139 20.4248 13.165C20.4321 13.2139 20.4378 13.2631 20.4434 13.3125ZM20.4004 13.0215C20.3975 13.0058 20.3947 12.9902 20.3916 12.9746C20.3947 12.9902 20.3975 13.0058 20.4004 13.0215ZM20.3633 12.8447C20.3585 12.8239 20.3538 12.803 20.3486 12.7822C20.3538 12.803 20.3585 12.8238 20.3633 12.8447ZM20.2549 12.4609C20.2501 12.4466 20.2452 12.4323 20.2402 12.418C20.2452 12.4323 20.2501 12.4466 20.2549 12.4609ZM20.1904 12.2812C20.1842 12.2652 20.1773 12.2494 20.1709 12.2334C20.1773 12.2494 20.1842 12.2652 20.1904 12.2812ZM20.0361 11.9326C20.0229 11.906 20.0089 11.8798 19.9951 11.8535C20.0089 11.8798 20.0229 11.906 20.0361 11.9326ZM19.9521 11.7725C19.9323 11.7366 19.9115 11.7012 19.8906 11.666C19.9115 11.7012 19.9323 11.7366 19.9521 11.7725ZM19.8564 11.6084C19.8395 11.5809 19.8212 11.5544 19.8037 11.5273C19.8212 11.5544 19.8395 11.5809 19.8564 11.6084ZM19.6367 11.2861C19.6101 11.2507 19.5824 11.2162 19.5547 11.1816C19.5824 11.2162 19.6101 11.2507 19.6367 11.2861ZM18.8867 10.5195C18.8638 10.5014 18.8407 10.4835 18.8174 10.4658C18.8407 10.4835 18.8638 10.5014 18.8867 10.5195ZM18.7646 10.4258C18.7283 10.3992 18.6915 10.3731 18.6543 10.3477C18.6915 10.3731 18.7283 10.3992 18.7646 10.4258ZM18.5869 10.3027C18.5623 10.2866 18.5377 10.2705 18.5127 10.2549C18.5377 10.2705 18.5623 10.2866 18.5869 10.3027ZM18.4014 10.1885C18.38 10.176 18.3586 10.1635 18.3369 10.1514C18.3586 10.1635 18.3799 10.176 18.4014 10.1885ZM18.2402 10.0996C18.2127 10.0852 18.1852 10.0705 18.1572 10.0566C18.1852 10.0705 18.2127 10.0852 18.2402 10.0996ZM18.0889 10.0234C18.0441 10.0023 17.9987 9.98249 17.9531 9.96289C17.9987 9.98248 18.0441 10.0023 18.0889 10.0234ZM17.9092 9.94434C17.8743 9.92981 17.8391 9.91594 17.8037 9.90234C17.8391 9.91594 17.8743 9.92981 17.9092 9.94434ZM17.708 9.86523C17.6787 9.85478 17.6488 9.84574 17.6191 9.83594C17.6488 9.84574 17.6787 9.85479 17.708 9.86523ZM17.5225 9.80469C17.4862 9.79369 17.4497 9.78346 17.4131 9.77344C17.4497 9.78346 17.4862 9.79369 17.5225 9.80469ZM17.3369 9.75293C17.3004 9.74368 17.2635 9.73581 17.2266 9.72754C17.2635 9.73581 17.3004 9.74368 17.3369 9.75293ZM17.1338 9.70703C17.0933 9.69893 17.0526 9.69149 17.0117 9.68457C17.0526 9.69149 17.0933 9.69893 17.1338 9.70703ZM10.1465 24.4717C10.1376 24.5209 10.1292 24.5703 10.1221 24.6201C10.1292 24.5703 10.1376 24.5209 10.1465 24.4717ZM10.6953 23.0391C10.6772 23.0684 10.6599 23.0981 10.6426 23.1279C10.6599 23.0981 10.6773 23.0684 10.6953 23.0391ZM11.6826 21.9375C11.6432 21.9683 11.6037 21.9991 11.5654 22.0312C11.6037 21.9991 11.6432 21.9683 11.6826 21.9375ZM11.9775 21.7275C11.9387 21.7527 11.9002 21.7783 11.8623 21.8047C11.9002 21.7783 11.9387 21.7527 11.9775 21.7275ZM13.4219 21.1396C13.3658 21.1508 13.3101 21.1634 13.2549 21.1768C13.3101 21.1634 13.3658 21.1508 13.4219 21.1396Z" fill="white"/>
<path d="M18.393 13.7833C18.3929 12.6353 17.4615 11.7055 16.3135 11.7055C15.1657 11.7056 14.2359 12.6354 14.2357 13.7833C14.2357 14.9313 15.1656 15.8626 16.3135 15.8628V17.9406C14.0175 17.9404 12.1562 16.0793 12.1562 13.7833C12.1564 11.4873 14.0176 9.62612 16.3135 9.62598C18.6096 9.62598 20.4707 11.4872 20.4708 13.7833C20.4708 16.0794 18.6097 17.9406 16.3135 17.9406V15.8628C17.4616 15.8628 18.393 14.9314 18.393 13.7833Z" fill="#FE8FC4"/>
<path d="M22.5514 25.2173C22.5514 22.9212 20.6902 21.0601 18.3941 21.06H14.2368C11.9406 21.06 10.0795 22.9211 10.0795 25.2173V27.2951H22.5514V25.2173ZM24.6309 29.3745H8V25.2173C8 21.8809 10.62 19.1562 13.9148 18.9889L14.2368 18.9805H18.3941L18.7144 18.9889C22.0097 19.1557 24.6309 21.8805 24.6309 25.2173V29.3745Z" fill="#FE8FC4"/>
</g>
</svg>
