<svg width="24" height="25" viewBox="0 0 24 25" fill="none" xmlns="http://www.w3.org/2000/svg">
<mask id="mask0_3094_1633" style="mask-type:alpha" maskUnits="userSpaceOnUse" x="0" y="0" width="24" height="25">
<rect y="0.5" width="24" height="24" fill="#ABABAB"/>
</mask>
<g mask="url(#mask0_3094_1633)">
<path d="M21 12.4998C21 12.6351 20.8879 12.7597 20.7399 12.9147C19.3303 14.3959 17.0734 17.3337 14.3262 18.9218C12.4827 19.9871 10.1498 20.3274 8.3258 19.6506C6.50698 18.9758 5.75231 17.1346 6.07926 15.7231C6.40622 14.3115 7.62665 13.2649 8.73399 12.7617C8.85223 12.7077 9.02804 12.6077 9.03113 12.5066C9.03421 12.4056 8.85839 12.2938 8.73501 12.2379C7.62665 11.7347 6.42164 10.7547 6.07926 9.27651C5.73688 7.79828 6.50698 6.02283 8.3258 5.34895C10.1498 4.6731 12.4827 5.01249 14.3251 6.07776C17.0714 7.66488 19.3261 10.6007 20.7368 12.0819C20.8859 12.2389 21 12.3644 21 12.4998Z" fill="#FE8FC4"/>
</g>
</svg>
