<svg width="24" height="24" viewBox="0 0 24 24" fill="none" xmlns="http://www.w3.org/2000/svg">
<path d="M12 6.10352e-05C18.6274 7.08279e-05 24 5.37266 24 12.0001C24 18.6275 18.6274 24.0001 12 24.0001C5.3726 24.0001 9.793e-06 18.6275 0 12.0001C0 5.37265 5.37259 6.10352e-05 12 6.10352e-05Z" fill="black"/>
<path d="M13.1765 11.1899L17.9794 5.54776H16.8413L12.6709 10.4468L9.34005 5.54776H5.49829L10.5352 12.9559L5.49829 18.8726H6.63649L11.0405 13.6991L14.5581 18.8726H18.3999L13.1762 11.1899H13.1765ZM11.6176 13.0212L11.1072 12.2835L7.0466 6.41366H8.79481L12.0718 11.1508L12.5821 11.8885L16.8418 18.0461H15.0936L11.6176 13.0215V13.0212Z" fill="white"/>
</svg>
